<?xml version="1.0" encoding="utf-8"?>
<!-- Generator: Adobe Illustrator 16.0.0, SVG Export Plug-In . SVG Version: 6.00 Build 0)  -->
<!DOCTYPE svg PUBLIC "-//W3C//DTD SVG 1.1//EN" "http://www.w3.org/Graphics/SVG/1.1/DTD/svg11.dtd">
<svg version="1.1" id="map_mada" xmlns:amcharts="http://amcharts.com/ammap"
xmlns="http://www.w3.org/2000/svg" xmlns:xlink="http://www.w3.org/1999/xlink" x="0px" y="0px" width="800.008px"
height="1588.783px" viewBox="-0.006 -0.266 800.008 1588.783" enable-background="new -0.006 -0.266 800.008 1588.783"
xml:space="preserve">
<defs>


<amcharts:ammap  bottomLatitude="-25.6065157" rightLongitude="50.4837799" topLatitude="-11.9519639" leftLongitude="43.1851395" projection="mercator">
</amcharts:ammap>
</defs>
<path id="region_16" region="Vatovavy-Fitovinany" fill="#CCCCCC" stroke="#FFFFFF" stroke-width="0.5" d="M555.52,956.55l-1.14-0.301l-1.33-0.559l-2.42-1.432
l-1.931-1.439l-0.37-0.43l-2.319-4.121l-0.34-0.459l-0.41-0.391l-0.561-0.299l-0.68-0.17l-0.99,0.039l-0.75,0.131l-0.649,0.229
l-0.49,0.33l-0.41,0.381l-0.31,0.471l-0.221,0.52v0.619l0.19,0.561l0.6,0.98l0.17,0.51l-0.109,0.5l-0.69,0.859l-0.33,0.49
l-0.22,0.58l-0.22,1.301l-0.23,0.559l-1.1,1.32l-0.311,0.5l-0.37,1.27l-0.109,0.711l-0.181,0.619L533.93,966l-0.38,1.25l-0.101,0.65
l0.061,0.67l0.149,0.621l0.75,1.609l0.021,0.58l-0.22,0.49l-0.381,0.42l-0.52,0.289l-0.59,0.201l-0.7,0.02l-0.97-0.42l-1.19-0.73
l-2.12-1.74l-1.989-1.27l-0.591-0.121l-1.029-0.039l-1.341,0.15l-1.3,0.311l-0.58,0.229l-1.46,0.951l-1.25,1.189l-0.51,0.289
l-0.61,0.182l-0.71,0.08l-0.739-0.012l-0.721-0.08l-1.359-0.299l-1.431-0.16l-0.71,0.051l-0.68,0.109l-0.62,0.199l-0.54,0.23
l-1.979,1.33l-0.58,0.23l-0.65,0.129l-2.88,0.17l-1.29,0.271l-0.72-0.021l-0.7-0.199l-10.05,9.709l-8.25,2.941l-1.38,16.16
l-1.37,7.359l-8.25,1.471l-5.51,5.879l-1.37,19.15l-4.13,22.109l-5.5,13.281l2.75,8.859l4.13,10.35l-6.88,34.02l-4.131,17.781
l-4.13,8.9l4.13,8.898l-16.51,8.91l-12.38,7.42l5.51,8.92l17.88,8.92l9.631,1.48l4.13-4.459l9.62,5.949l4.13,13.391l13.76,5.959
h13.75l11.55,9.811l1.99-13.609l3.62-7.961l1.52-7.82l13.971-32.74l13.97-32.68l13.859-45.059l1.53-2.932l1.61-4.26l1.8-10.1
l0.21-3.58l0.4-1.609l3.97-9.41l1.03-4l0.37-4.02l0.42-2.041l1.939-3.49l0.72-1.74l0.2-1.91l-0.27-1.559l-0.82-0.43l-1.43,1.488
l-0.471-1.699l0.91-1.779l1.471-1.84l1.159-1.9l10.96-41.701l5.931-18.439l0,0l-0.91-0.43l-9.04-2.5l-7.78,0.07l-5.51-1.25
l-0.85-0.41l-0.971-0.98l-0.37-0.83l-0.14-0.84l0.07-0.74v-1.51l-0.141-0.66l-0.46-1.15l-0.34-0.479l-0.54-0.49l-1.88-1.301
l-0.63-0.59l-0.68-0.42l-0.7-0.209l-1.17,0.1l-3.43,0.92l-0.721,0.08L555.52,956.55z"/>
<path id="region_5" region="Vakinankaratra" fill="#CCCCCC" stroke="#FFFFFF" stroke-width="0.5" d="M511.119,873.701L496.23,862l-19.26-8.75v-14.58
l2.75-16.029h-12.38l-4.13,11.66l-11,7.279h-15.131l-15.14-2.91l-4.12-5.83l-12.38-1.459l-13.76,2.92l-13.75,8.74l-9.63,10.209
l-8.26,1.461l-11-2.92l-26.141,4.379l-19.26,2.91l-19.58-1.939l0.22,6.391l-0.05,0.738l-0.21,0.602l-0.34,0.689l-0.29,0.891
l-0.18,1.6l0.06,0.939l0.28,0.701l0.39,0.408l0.42,0.74l0.45,1.041l1.05,4.17l2.391,5.699l0.239,1.311l0.15,1.76l0.22,1.199
l0.7,2.521l0.101,0.879l-0.351,4.521l-0.189,0.639l-0.24,0.58l-0.61,1l-0.8,0.82l-0.89,0.73l-0.75,0.82l-0.48,1.039l-0.17,0.641
l-0.31,2.16L284.69,903l-0.569,1.07l-2.66,3.27l2.43,2.551l2.811,1.57l0.779,0.109h0.96l0.92-0.16l0.681-0.35l1.069-0.791
l0.78-0.059l0.8,0.27L295.2,911l5.399,2.451l7.09,0.398l0.73,0.461l1.43,1.4l0.84,0.529l0.771,0.01l2-0.359l0.979,0.35l1.2,1.68
l0.58,4.1l0.87,1.871l1.86,1.129l1.829,0.23l1.41,0.641l0.561,2.391l0.31,2.539l0.811-0.109l2.63-3.23l2.7-1.9l1.02-1.049l0.85-1.91
l1.4,1.24l3.3,1.709l1.22,1.041l0.761,1.658l0.149,1.891l-0.66,1.541l-1.68,0.568l0.88,1.471l1.101,2.811l1.02,1.311l-2.609,1.559
l-0.44,1.85l1.1,1.951l1.95,1.9l4.43,3.049l2.511,1.23l2.13,0.52l1.42-0.35l2.62-1.6l1.27-0.451l1.36,0.061l1.03,0.42l0.939,0.561
l2.21,0.84l2.09,0.449l1.341,0.07l0.97,0.311l0.62,0.75l0.58,0.9l0.859,0.799l2.55,0.111l2.091-1.781l1.83-1.969l1.77-0.4l7.34,3.75
l2.41,0.721l2.68-0.25l1.811-1.07l1.55-0.531l1.87,1.42l2.13,1.102l2.18-0.791l1.801-1.24l1.039-0.23l2.771-0.18l0.61-0.279
l0.439-0.359l0.41-0.4l0.71-0.91l2.51-2.33l3.41-3.869l0.97-1.471l0.37-0.439l1.45-1.061l0.67-0.311l1.05-0.16l0.69,0.141l0.54,0.24
l1.229,0.799l2.08,0.971l0.88,0.131l0.74-0.09l3.31-1.48l5.07-0.26l0.87-0.182l2.16-1.029l1.87-0.379l1.93-0.021l1.01-0.16
l0.59-0.42l0.16-0.639l0.561-3.5l0.069-2.121l0.17-0.639l0.271-0.531l0.34-0.49l0.771-0.85l0.42-0.379l1.449-0.961l0.48-0.42
l0.53-0.369l0.779-0.262l0.631,0.092l0.479,0.318l0.32,0.49l0.33,0.631l0.449,0.619l0.841,0.68l0.729,0.17l0.561-0.17l0.409-0.398
l1.62-2.09l0.28-0.23l0.44-0.25l2.09-0.66l1.25-0.25l0.85,0.02l0.68,0.189l0.511,0.311l1.35,1.08l0.54,0.26l6.8,1.82l1.141,0.1
l0.8-0.16l0.43-0.389l0.33-0.48l0.24-0.58l0.34-0.621l0.51-0.52l1.05-0.389l0.73,0.029l0.65,0.209l0.46,0.352l0.359,0.449
l0.561,1.23l0.479,0.639l0.58,0.141l0.561-0.109l5.55-3.27l1.149-0.471l3.391-0.57l0.609-0.209l0.46-0.33l1.521-1.721l0.53-0.439
l0.68-0.32l1.1-0.26l0.65,0.17l0.439,0.4l0.141,0.529l-0.12,0.561l-0.31,0.439l-0.761,0.859l-0.26,0.5l-0.1,0.551l0.149,0.539
l0.34,0.42l0.58,0.32l0.74,0.221l2.55,0.51l0.57,0.23l0.51,0.309l0.41,0.4l0.28,0.361l0.31,0.719l0.46-5.5l0.49-1.99l3.01-5.459
l0.4-1.221l0.24-1.029l-0.011-4.07l0.181-0.869l0.26-0.682l0.61-1.02l0.34-0.459l0.819-0.801l1.87-1.359l1.681-1.531l0.739-0.869
l3.41-5.801l1.03-2.729l0.29-2.941v-0.68l-0.18-0.939l-0.311-1.121l-0.229-1.35l-0.16-7.141l0.12-1.35l0.38-0.799l1.26-1.74
l0.43-1.051l0.17-0.859V873.701z"/>
<path id="region_7" region="Sofia" fill="#CCCCCC" stroke="#FFFFFF" stroke-width="0.5" d="M547.09,234.45l-1.301-0.2l-0.649-0.41l-0.41-0.53
l-0.13-0.58l-0.12-0.88v-1.31l0.521-2.6l0.239-0.53l0.33-0.47l2.641-2.03l1.31-1.82l0.27-0.49l1.79-2.13l0.631-0.93l0.26-0.52
l0.21-0.64l0.03-0.7l-0.271-0.91l-0.51-0.31h-0.57l-0.55,0.22l-1.03,0.54l-3.66,2.62l-4.27,1.94l-0.95,0.59l-2.12,1.8l-0.45,0.31
l-4.27,1.94l-0.44,0.34l-0.31,0.42l-0.1,0.58l0.119,0.56l0.381,1.14l0.14,0.62l0.01,0.63l-0.109,0.53l-0.2,0.34l-0.11,0.18
l-0.45,0.44l-0.42,0.28l-0.53,0.25l-2.449,0.66l-0.33,0.38v0.58l1.18,1.74l0.08,0.61l-0.24,0.44l-0.85,0.76l-0.37,0.27l-0.8,0.72
l-0.04,0.03v0.01l0.899,0.31l0.98,2.01l0.3,2.6v2.63l-0.68,2.41l-2.97,4.08l-0.79,2.49l0.21,1.31l0.649,1.4l0.84,1.29l0.87,1.01
v0.97l-1.12,1L526,263.33l-0.86,0.7l-0.101,1.05l0.141,1.33l-0.05,1.28l-0.74,0.92l-1.48-0.03l-0.68-1.41l-0.16-1.77l0.021-1.03
l0.359-2.93l1.59-5.85l0.351-2.89l0.439-1.44l0.91-1.06l0.71-1.08l-0.14-1.48l-0.68-0.9l-0.9-0.5l-0.94-0.37l-0.89-0.47l-4.51-3.27
l-2.36-0.66l-1.439,1.55l2.149,1.28l1.67,2.7l1.091,3.11l0.399,2.59l-0.16,1.56l-0.439,1.95l-0.7,1.85l-0.95,1.25l-0.89,0.3
l-2.181-0.3l-1.46,0.39l-3.58,0.2l-5.109-3.71l-2.59,0.82l-0.971,1.19l-0.46,1.22l-0.14,3.38l-0.32,1.8l-0.81,0.93l-2.62,1.6
l-2.25,2.89l-1.37,3.57l-0.689,3.82l-0.181,4.89l0.2,0.34l1.25,0.97l-0.2,0.33l-0.46,0.37l-0.04,0.68l1.87,3.93l0.49,0.54l0.42,0.64
l0.21,1.09l-0.22,0.74l-1.12,1.13l-0.22,0.46l0.52,1.27l2.271,4.1l0.68,0.891l1.09-0.58l1.4-1.341l3.1-4.31l0.75,0.6l0.68,1.64
l0.88,1.59l1.66,1.36l1.511,0.359l1.42-0.289l1.42-0.58l3.439-2.05l1.65-0.26l2.07,1.12l2.43,2.6l1.37,1.189l1.479,0.5l2.2,1.801
l1.01,4.15l0.03,4.66l-0.62,3.34l-1.82,2.859l-0.6-2.15l0.16-7.709l-0.851-3.66l-2.18-2.381l-2.91-0.34l-3.05,2.449l1.51,1.191
l0.9,2.299l-0.12,2.521l-1.6,1.809l-0.24-1.42l0.13-2.629l-0.58-1.361l-1.18-0.869l-3.44-0.961l-1.439-0.58l-2.15-1.879l-4.66-6.57
l-0.49,2.41l-1.56,1.141l-1.63,0.92l-0.76,1.74l-0.41,1.568l-1,1.67l-2.47,2.881l-0.631,0.42l-1.869,0.91l-0.841,0.66l-0.42,0.859
l0.011,2.061l-0.311,0.939l-3.57,3.68l-0.489,1.4l-0.59,3.311l-7.851,15.1l-0.62,1.891l0.11,2.939l-0.38,1.051l-1.23-0.951
l-3.109,2.5l-1.431,3l-1.029,3.17l-1.99,3.1l-1.101,0.842l-3.6,2l-1.3,0.27l-1.54-0.871l-0.37-1.369l1.13-13.9l1.12-3.4l1.66-2.67
l6.31-7.41l1.21-2.799l0.29-0.311l-0.35-1.18l-0.7-0.52l-0.72-0.25l-0.471-0.441l-0.409-1.719l0.489-6.961l-0.149-1.189l-2.25-2.609
l-0.7-1.371l-0.42-1.26l-0.72-0.439l-1.54,1.129l-13.7,14.611l-3.311,5.309h-0.68l1.7,2.57l1.03,0.631l1.699-0.1l1.23-0.641
l0.64-1.84l1.21-1.01l1.78,0.35l0.72,2.35l-0.33,2.641l-1.42,1.25l-2.59,0.289l-2.479,0.85l-2.311,1.352l-5.529,5.25l-1.53,2.029
l-2.38,6.721l-4.11,3.648l-4.729,3.131l-3.65,3.26l-3,4.23l-0.96,2.449l0.21,2.57l0.75,0.98l1.87,1.08l0.68,2.32l0.82,0.529
l1.2,0.041l1.489-0.201l-1.04,2.76l-0.149,1.291l0.31,1.449l3.181-1.439l0.97-0.189l1.39,0.08l0.351,0.34l-0.03,0.729l1.52,7.221
l1.841,3.439l0.399,0.51l0.94,0.58l0.96,0.281l0.899,0.07l0.71,0.17l0.431,0.648l-0.36,2.031l-1.729,1.189l-3.98,1.52l-3.56-1.209
l-3.761,21.539l4.12,18.58l4.13,24.311l8.25,12.891l6.88,10.02l1.381,10.029l9.63,5.74l9.63,5.73h12.38l5.5,4.299l9.63,4.311
l16.69,4.59l0.319-2.74l0.17-0.699l0.75-1.779L517.13,512l0.89-6.84l0.01-1.039l-0.17-1.42l-0.81-3.971v-0.99l0.12-0.811
l0.729-1.639l0.64-0.941l0.801-0.779l1.38-0.98l0.859-0.889l0.36-0.82l0.08-0.77l-0.03-1.4l0.271-0.611l0.439-0.229l0.53,0.189
l0.94,0.539l0.51,0.07l0.34-0.039l0.48-0.189l0.949-0.551l0.58-0.15h0.58l0.61,0.141l1.109,0.469l1.23,0.32l1.34,0.01l0.63-0.068
l0.67,0.049l0.551,0.221l1.02,0.609l0.54,0.221l0.62,0.129l2.74,0.16l0.71-0.029l0.6-0.16l0.56-0.23l0.53-0.26l0.561-0.209l1.96-0.4
l0.58-0.221l1.51-0.83l0.58-0.219l5.29-0.922l1.35,0.141l0.63,0.16l0.66,0.041l0.66-0.061l1.2-0.23l0.58,0.09l0.52,0.23l0.48,0.301
l1.25,1.129l1.699,2.23l0.41,0.379l1.45,0.92l0.811,0.781l0.529,0.279l0.561,0.23l2,0.391l0.529,0.27l0.37,0.41l0.21,0.6l0.13,2.199
l0.221,0.551l0.33,0.359l0.489,0.051l1.07-0.34l0.7-0.031l1.39,0.031l2.53-0.471l0.61,0.051l0.55,0.209l0.85,0.621l1.23,1.129
l3.029,4.061l1.94,1.23l1.1,0.5L586,505.75l2.149,1.061l1.86,1.289l0.76,0.82l0.28,0.51l0.34,1.23l0.3,0.49l0.45,0.359l0.97,0.602
l0.391,0.35l0.239,0.469l0.23,1.691l0.24,0.549l0.609,0.971l0.271,0.529l0.14,0.65l0.23,2.779l-0.12,1.262l0.06,0.648l0.2,0.561
l0.3,0.49l0.36,0.42l1.229,1.16l0.23,0.51l0.14,0.609l-0.03,0.65l-0.159,0.631l-0.46,1.139l-1.74,3.021l-0.47,1.09l-0.351,1.27
l-0.08,0.721v1.488l0.25,1.32l0.4,1.201l1.01,2.129l3.5,5.281l0.41,0.389l0.5,0.32l0.6,0.16l0.641-0.02l0.62-0.15l0.51-0.25
l0.97-0.619l0.88-0.711l2.05-1.93l9.341-6.529l0.539-0.23l0.601-0.189l0.64-0.061l1.33,0.061l1.88-0.32l0.65,0.049l2.28,0.871
l0.63,0.16l0.68,0.068l5.4-0.969l0.779-0.291l0.98-0.52l0.41-0.529l0.029-0.6l-0.239-0.48l-1.04-1.33l-0.58-1l-0.12-0.701
l0.02-0.779l0.37-1.1l0.54-0.74l0.65-0.68l1.05-0.871l0.9-0.959l0.46-0.791l1.14-2.76l1.4-2.369l0.55-1.291l0.28-1.068l-0.08-1.541
l0.1-0.971l0.45-1.398l0.56-0.621l0.66-0.299l0.68-0.041l0.631-0.119l0.619-0.182l4.33-2.199l2.21-1.73l1.681-2.549l0.319-0.76
l0.141-0.602l0.13-1.279l0.51-1.301l6.521-12.01l0.51-1.309l0.24-1.051l-0.101-0.65l-0.17-0.639l-0.68-1.602l-0.05-0.6l0.1-1.32
l-0.03-0.68l-0.12-0.67l-0.239-0.529l-0.36-0.441l-0.46-0.33l-1.16-0.449l-1.26-0.301l-4.351-0.209l-3.399-0.57l-10.26-4.811
l-0.44-0.34l-0.4-0.389l-0.18-0.701l0.13-0.98l1.54-3.609l0.98-4l0.04-0.27l1.09-3.34l0.79-1.631l0.64-0.879l2.71-2.92l1.55-2.102
l1.431-2.84l0.279-1l0.08-0.789l-0.119-1.381l-1.311-6.529l-0.72-2.41l-0.94-2.189l-0.609-0.99l-1.36-1.779l-0.271-0.521
l-0.17-0.609l-0.069-0.68v-0.73l0.2-1.359l1.359-4.98l1.86-13.98v-0.699l-0.08-0.621l-0.19-0.559l-0.22-0.541l-0.22-0.719
l-0.12-0.861l0.17-1.459l0.3-0.791l0.36-0.619l1.79-1.631l1.18-1.459l0.51-0.941l0.24-0.818l-0.07-0.541l-0.26-0.359h-0.42
l-1.04,0.33l-0.58,0.029l-0.51-0.199l-0.48-0.301l-0.46-0.35l-0.5-0.23l-0.59-0.039l-1.12,0.309l-0.67,0.08l-0.71-0.02l-0.649-0.141
l-0.58-0.209l-0.511-0.279l-0.439-0.342L638,394.83l-0.53-1.02l-0.17-0.631l-0.12-0.648l-0.13-1.441l-0.19-0.59l-0.54-1.02
l-0.21-0.74V387.8l0.29-1.551l0.43-0.74l0.511-0.5l1.26-0.309l2.83-0.361l1.24-0.33l0.63-0.1h0.67l1.24,0.189h0.68l0.649-0.109
l0.601-0.18l3.1-1.6l2.38-0.74l1.061-0.49l0.49-0.461l0.5-0.559l0.63-0.891l0.489-0.561l0.511-0.43l0.979-0.609l0.54-0.24
l0.58-0.189l0.65-0.131l0.7-0.029l1.409,0.16l0.83-0.061l0.96-0.26l3.03-1.971l1.18-0.439l0.591-0.32l1.01-1.09l0.46-0.391
l0.55-0.229l0.59-0.111l0.63,0.051l1.811,0.561l0.66,0.059l0.75-0.17l0.829-0.65l0.49-0.619l0.34-0.619l0.4-1.16l0.09-0.691
l0.03-0.719l-0.08-0.68l-0.17-0.621l-0.271-0.52l-0.64-0.91l-0.24-0.529l-0.08-0.682v-0.809l0.08-0.98l0.34-0.57l0.5-0.299
l0.62-0.041l0.561,0.141l1.68,0.65l1.33,0.27l1.43,0.049l0.79-0.16l0.71-0.309l0.92-0.621l0.45-0.629l0.3-0.67l0.261-2.111
l-0.07-1.439l-0.1-0.66l-0.171-0.539l-0.31-0.75l-0.1-0.531v-0.719l0.17-0.84l0.95-2.541l0.17-0.629l0.159-1.4l-0.069-1.41
l-0.7-2.49l-0.03-0.779l0.01-0.881l0.271-1.221l0.4-0.6l0.54-0.26l0.51,0.131l0.5,0.27l2.52,1.789l0.34,0.191l0.48,0.189l0.61,0.16
l0.659,0.1l0.69,0.029l0.729-0.309l0.711-0.631l1.93-2.789l0.41-0.371l0.479-0.32l0.521-0.25l1.04-0.299l0.819,0.08l-1.14-3.91
l-0.75-1.461l-5.33-7.148l-1.01-0.631l-0.99-0.439l-1.14-0.781l-1.13-1.059l-0.521-0.781l-0.38-0.699l-2.13-5.59l-0.15-0.6
l0.05-0.541l0.33-1.15l0.08-0.609l-0.069-0.6l-0.15-0.57l-3.97-9.051l-0.681-1.129l-1.02-1.16l-2.03-2.85l-1.88-1.64l-0.3-0.63
l-0.021-0.64l0.2-0.56l0.57-1l0.34-0.45l0.82-0.72l1.359-0.99l0.36-0.52l0.22-0.66l-0.04-1.08l-0.25-0.65l-0.34-0.55l-1.62-1.53
l-0.43-0.33l-1.62-0.76l-0.47-0.31l-1.21-1.1l-0.48-0.32l-1.09-0.49l-1.17-0.39l-0.53-0.26l-2.27-2l-2.04-2.67l-1.38-2.69
l-0.42-0.59l-0.41-0.38l-3.2-2.28l-3.85-3.97l-3.03-2.2l-0.49-0.78l-0.58-1.25l-0.6-0.71l-0.891-0.77l-0.51-0.55l-0.34-0.58
l-1.34-4.45l-0.86-1.87l-0.68-0.53l-0.59-0.14l-0.51,0.16l-0.54-0.09l-5.82-3.31l-0.67-0.26l-0.681-0.21l-2.02-0.28l-0.72-0.23
l-0.66-0.35l-1.21-0.83l-0.79-0.31l-0.73-0.03l-1.6,0.69l-1.3,0.27l-0.54,0.22l-0.48,0.3l-0.41,0.38l-2.88,4.18l-0.41,0.37
l-0.489,0.28l-2.23,0.87l-2.83,1.85l-0.79,0.79l-0.29,0.47l-0.39,0.45l-0.46,0.35l-0.71,0.08l-0.41-0.3l-0.27-0.51l-0.221-1.39
l-0.31-0.62l-2.37-3.61l-0.73-0.53l-0.72-0.16l-0.51,0.25l-0.87,0.69l-0.53,0.23L608,253.64h-1.351l-0.63,0.12l-1.67,0.66
l-0.59,0.15l-0.63,0.09l-0.67-0.04l-0.561-0.2l-0.59-0.33l-6.84-5.34l-0.561-0.35l-3.479-1.15l-1.28-0.61l-0.66-0.52l-4.14-4.71
l-1.23-0.96l-0.97-0.4l-0.56,0.18l-0.511,0.28l-0.449,0.32l-1.261,1.09l-0.93,0.62l-3.14,1.51l-1.771,0.58l-2.7,0.39l-1.68,0.65
l-0.61,0.16l-1.06-0.13l-1.34-0.38l-2.61-1.32l-1.33-0.9l-1.93-1.73l-0.59-0.42l-4.21-2.32l-0.681-0.53l-2.779-3.77l-1.38-1.52
L550,232.6l-0.511,0.14l-0.39,0.37l-0.69,0.87l-0.569,0.32L547.09,234.45z"/>
<path id="region_2" region="Sava" fill="#CCCCCC" stroke="#FFFFFF" stroke-width="0.5" d="M758.539,449.929l0.25-0.039l1.87,1.82l2.221,5.639
l1.62-1.299l1.67-0.051l1.75,0.25l1.77-0.469l1.25-1.451l2.51-6.41l7.94-10.359l0.72-1.52L781,435.38l0.859-3.27l9.76-18.621
l0.7-3.07l0.22-2.1l1.95-5.699l0.75-3.961l0.46-0.76l1.33-1.4l0.471-0.889l-0.08-0.711l-0.301-0.99l-0.21-1.119l0.21-1.141
l1.061-2.73l0.14-0.799l-0.16-1.141l-0.25-0.811l0.04-0.789l1.051-1.77l0.64-1.811l0.11-0.68l-0.62-7.301l-0.91-3.709l-1.47-2.771
l-1.37-1.059l-1.44-0.83l-1.16-1.191l-0.91-3.85l-1.109-1.83l-5.33-6.549l-2.01-3.111l-7.851-17.5l-1.319-7.25l-0.7-2l-0.86-1.469
l-1.3-0.99l-2.94-1.5l-1.01-1.391l2.48-1.41l0.949-3.66l-0.319-4.129l-2.99-6.18l-0.8-12.571l-1.38-5.41l-0.19-1.99l0.26-1.76
l1.061-3.5l1.359-8.71l-0.08-3.25l-1.85-3.39l-2.74-2.55l-0.75-1.32l-0.26-2.35l0.15-3.99l0.31-2.04l1.01-3.16l0.11-4.03l-0.3-3.26
l-2.2-8.41l-1.16-22.55l-0.979-3.73l-2.54-5.32l-0.83-1.27l-0.65-1.82l0.891-3.85l-0.24-1.27l-0.351-0.65l0.021-0.61l-0.11-0.46
l-0.66-0.17l-0.46-0.04l-0.43-0.14l-0.36-0.24l-0.279-0.44l-0.32-0.8l-0.43-2.34l-0.051-0.94l0.2-2.04l-0.149-0.88l-0.46-0.61
l-1.311-1.04l-0.479-0.6l-1.261-3.07l-1.59-6.62l-0.22-3.03l0.84-3.78l0.13-1.98l-0.97-1.62l-1.14-0.15l-1.221,0.62l-1.33,0.41
l-1.489-0.88l-0.471-1.68l0.4-4.83l-0.34-1.96l-2.99-4.4l-0.42-1.42l-0.11-1.8l-0.529-2.29l-0.11-1.71l0.97-9.09l-0.22-6.04
l-0.58-1.1l-2.53-3.04l-0.58-1.63l-0.439-2.29l-1.15-0.97l-1.479-0.49l-1.48-0.83l-1.6-1.98l0.42-0.85l1.22-0.35l0.78-0.6
l-0.08-2.27l-1.05-0.89l-1.521-0.09l-1.51,0.1l-1.38-0.48l-1.03-1.18l-1.399-2.98l-0.16-1.03l0.49-2.85l-0.49-0.74l-2.73-2.57
l-1.31-0.95l-1.48-0.73l-1.489-0.39l0.3-0.42l0.52-1.12l-1.5-0.6l-1.21,0.21l-0.8,0.98l-0.56,3.1l-0.62,1.02l-0.721,0.95
l-0.659,1.26l-0.86-0.58l-0.92-0.14l-0.98,0.2l-0.979,0.52l0.55-1.46l1.42-2.47l0.28-1.45l-0.24-1.22l-1.08-2.41l-0.25-1.43
l-0.84-1.96l-1.96-2.27l-10.08,10.37l-9.63,9.88l-6.88,9.87l8.26,1.42l1.37,8.47l-5.5,9.88l-1.37,19.78l-6.88,7.07l6.88,22.63
l-5.51,22.65l-2.75,8.5l-1.37,9.92l-11.01,2.83l-5.5,18.44l-9.17,10.01l0.51-0.16l0.59,0.14l0.68,0.53l0.86,1.87l1.34,4.45
l0.34,0.58l0.51,0.55l0.891,0.77l0.6,0.71l0.58,1.25l0.49,0.78l3.03,2.2l3.85,3.97l3.2,2.28l0.41,0.38l0.42,0.59l1.38,2.69
l2.04,2.67l2.27,2l0.53,0.26l1.17,0.39l1.09,0.49l0.48,0.32l1.21,1.1l0.47,0.31l1.62,0.76l0.43,0.33l1.62,1.53l0.34,0.55l0.25,0.65
l0.04,1.08l-0.22,0.66l-0.36,0.52l-1.359,0.99l-0.82,0.72l-0.34,0.45l-0.57,1l-0.2,0.56l0.021,0.64l0.3,0.63l1.88,1.64l2.03,2.85
l1.02,1.16l0.681,1.129l3.97,9.051l0.15,0.57l0.069,0.6l-0.08,0.609l-0.33,1.15l-0.05,0.541l0.15,0.6l2.13,5.59l0.38,0.699
l0.521,0.781l1.13,1.059l1.14,0.781l0.99,0.439l1.01,0.631l5.33,7.148l0.75,1.461l1.14,3.91l6.59,5.83l2.19,2.609l0.95,1.68
l2.45,3.461l1.3,1.299l1.04,0.602l0.6-0.172l8.96-3.639l0.521-0.26l1.149-0.07l1.65,0.16l5.39,1.039l1.221,0.031l0.579-0.211
l1.631-0.92l0.67-0.25l1.029-0.17l0.631,0.17l0.56,0.26l0.42,0.35l0.771,0.811l2.079,4.199l7.29,9.541l0.301,0.68l0.08,0.631
l-0.211,0.52l-0.359,0.42l-0.44,0.34l-0.479,0.301l-2.82,1.219L744,369.33l-0.37,0.311l-0.4,0.369l-0.7,0.852l0.19,0.92l0.68,1.318
l2.29,2.67l0.9,1.391l0.5,1.09L747,378.9l-0.2,0.57l-1.181,1.949l-0.239,0.551l-0.521,2.66l-0.109,1.4l0.05,0.68l0.109,0.66
l0.54,1.148l3.931,6.051l0.52,1.131l0.021,0.699l-0.12,0.65l-0.16,0.619l-2.01,5.08l-0.15,0.641l-0.09,0.68l0.1,2.891l-0.05,0.689
l-1.1,4.4l-0.021,0.74l0.141,0.859l1.779,4.33l1.45,4.58l0.4,3.539l0.39,1.811l0.59,1.621l0.601,1.109l1,1.471l0.409,0.93
l0.21,0.879l0.25,2.1l4.28,13.311l0.71,0.59L758.539,449.929z"/>
<path id="region_19" region="Menabe" fill="#CCCCCC" stroke="#FFFFFF" stroke-width="0.5" d="M209.38,717.31l-1.04-0.35l-0.82-0.76l-0.859-1
l-1.141-0.9l-3.439-1.65l-2.61-1.891l-0.93,0.221l-0.82,0.66l-0.78,0.801l-1.449,1.1l-0.53,0.49l-1.3,1.59l-1.631,1.58l-0.72,0.898
l-0.63,0.961l-1,1.01l-1.4,0.91l-2.76,0.801l-2.85,1.52l-4.36,3.709l-0.689,0.92l-1.83,2.961l-0.48,0.98l-0.08,1.109l0.41,1
l0.561,0.99l3.949,5.67l0.41,1.029l0.601,2.041l0.47,1.029l2.51,3.85l0.53,1.041l0.41,1.139l2.31,10.99l0.84,2.08l0.07,2.34
l0.25,1.16l0.53,1.01l1.489,1.75l0.49,0.99l0.15,1.191l-0.37,1.389l0.12,1.17l1.479,3.051l2.32,2.15l0.54,0.619l0.4,0.641
l0.39,0.969l0.76,3.881l-0.08,1.609l-0.41,1.771l-1.22,2.51l-0.56,1.67l-0.101,1.449l0.29,1.051l0.41,0.889l0.48,0.381l0.729,0.369
l0.87,0.33l0.56,0.891l0.431,1.1l0.25,1.301l0.74,2.119l1.149,5.48l0.41,1.18l0.53,1.111l0.38,1.229l0.09,1.4l-0.44,1.75
l-0.739,1.48l-1.2,1.811l-0.32,1.42l0.15,1.129l0.34,0.971l0.75,1.43l0.68,0.77l0.83,0.77l4.66,3.391l0.83,0.83l0.57,0.951V832
l-0.74,0.76l-1.101,0.432l-2.279,0.1l-2.49,0.449l-1.66,0.961l-1.25,0.139l-1.04-0.299l-0.939-0.43l-2.87-0.781l-2.141-0.9
l-1.189-0.09l-1.25,0.301l-1.311,0.51l-1.569,0.91l-0.931,1.359l-0.92,1.861l-1.279,1.34l-1.301,0.699l-3.71,1.051l-1.279,0.039
l-1.28-0.219l-2.5-0.721l-1.11-0.541l-2.01-1.27l-3.24-1.43l-1.14,0.02l-2.13,0.551l-0.92-0.1l-1.91-1.061l-1.891,0.16l-1.359-0.041
l-2.44-0.539l-3.06,0.379l-1.44-0.09l-2.569-0.639l-1.051-0.561l-0.79-0.811l-4.529-6.609l-1.44-1.67l-0.76-0.609l-0.68-0.371
l-0.82-0.32l-1.021-0.25l-1.04-0.09l-1.26,0.041l-1.279,0.18l-2.32,0.77l-1.09,0.279l-0.98-0.029l-2.34-0.609l-3.75-0.461
l-4.62-1.75l-2.42-0.469l-0.04-0.012l7.92,10.4l2.101,3.801l0.85,3.82l0.8,1.35l5.21,5.08l2.101,3.439l1.64,3.711l2.21,7.719
l0.44,4.57l-1.46,2.031l-2.421,0.439l-0.88,1.219l-0.26,1.791l-0.56,2.189l-0.641,0.711l-1.91,1.219l-0.52,0.531l-0.15,1.359
l0.25,1.109l0.4,1.051l0.25,1.189l0.12,3.99l-0.351,1.951l-0.89,1.648l-0.85,1.23l-2.101,4.01l-0.43,1.57l0.44,2.01l1.119,2.041
l1.45,1.799l1.49,1.32l0.71,0.25l1.58,0.09l0.78,0.451l0.529,0.818l0.96,3.25l2.03,0.291l0.82,3.879l-0.03,5.012l-0.56,3.58
l-1.771,4.359l-2.07,3.709l-2.59,3.25l-6.55,6.432l-2.36,3.68l-8.01,16.148l-1.09,4.25l0.37,3.771l-1.54,1.549l-4.82,3.791
l-1.529,2.02l-2.67,6.381l-0.551-1.432l-0.18-0.719l-0.02-1.051l-2.841,3.781l-1.51,5.209l-1.02,5.561l-1.37,4.74l-5.92,11.148
l-1.99,1.75L84,1008.66l-2.311,2.27l-6.92,13.58l-4.149,22.74l-3.94,11.031l-0.56,3.459l-1.101,2.93l-2.649,3.17l-3.19,2.541
l-2.74,1.049l-1.989-0.459l-1.95-0.859l-2.05-0.521l-4.12,1.18l-6.11-0.139l-0.45,0.34l-1.45,2.15l-3,1.59v0.74l1.62,1.709
l3.931,2.65l1.26,1.279l0.51,1.5l0.92,6.111l1.07,1.549l4.68,2.66l1.07,1.5l0.49,1.84l1.1,2.08l2.15,2.891l3.05,2.279l0.76,1.1
l0.32,1.16l0.12,2.48l0.25,1.18l2,3.891l0.729,1.859l0.271,2.73l0.819,2.699l3.62,2.99l0.811,1.611l0.37,1.559l0.85,2.07l1.78,3.27
l2.659,2.891l0.561,1.15l0.45,2.66l0.489,1.039l1.311,1.01l1.39,0.352l1.44,0.17l1.51,0.42l0.76,0.51l1.28,1.299l0.97,0.611
l2.44,0.559l2.27-0.359l3.971-1.01l1.779-0.699l2.7-3.762l1.9-1.84l3.34-2l4.01-1.609l4.09-0.23l3.62,2.131l1.771,3.439l1.02,0.07
l2.15-2.289l0.979-1.771l0.48-0.119l1.109,0.67l0.601,0.869l0.96,3.18l3.3-2.049l3.62-0.961l8.44-0.299l5.52-2.66l3.94-1l2.489-1.93
l2.561-1.352l10.21-15.93v-29.57l5.5-13.289l15.13,1.471l6.88,7.389l12.38,1.471l8.25-8.859l11.01-13.281l23.381-8.85l13.76-14.74
l11-2.939l12.93-2.121l0.33-1.35l-0.021-1.07l-0.199-1.479l-0.771-2.781l-0.27-1.469l-0.061-1.111l0.13-1.42l-0.04-1.41l0.07-0.68
l0.7-3.4l0.2-0.6l0.6-1.049l0.25-0.57l0.19-0.65l0.199-2.27l0.141-0.711l0.24-0.6l0.39-0.439l0.55-0.25l2.141-0.25l0.619-0.201
l0.44-0.369l0.33-0.5l0.11-0.68l0.06-0.73l-0.45-5.57l-2.83-12.469l-0.05-1.041l0.2-0.6l0.24-0.561l0.189-0.629l0.26-1.42l0.15-2.16
l0.15-0.531l0.159-0.369l1.07-1.801l0.22-0.609l0.141-0.67l0.05-1.52l-0.05-0.74l-0.92-4.621L287,967.9l0.069-0.709l0.341-1.281
l0.47-1.17l0.17-0.65v-0.93l-0.16-1.129l-1.91-8.051l-0.14-0.939l-0.03-2.211l-1.43-6.119l-0.95-2.131l-0.43-1.289l-0.2-0.941
l0.01-1.729l-0.06-1.17l-0.33-0.941l-0.681-1.25l-0.17-0.83l0.03-0.719l0.16-0.66l0.07-0.68l-0.07-2.191l0.07-0.738l0.18-0.631
l0.31-0.51l0.41-0.41l0.92-0.67l0.44-0.371l0.29-0.539l0.1-0.68l-0.2-1.641l0.08-0.721l0.46-1.309l0.17-0.871l-0.119-0.639
l-0.32-0.49l-0.46-0.361l-1.58-0.859l-0.92-0.68l-0.55-0.51l-0.53-0.68l-0.7-1.18l-0.17-0.881l0.09-0.711l0.87-1.568l0.22-0.602
l0.17-0.648l0.261-2.91l0.21-1.031l2.66-3.27l0.569-1.07l0.181-0.629l0.31-2.16l0.17-0.641l0.48-1.039l0.75-0.82l0.89-0.73l0.8-0.82
l0.61-1l0.24-0.58l0.189-0.639l0.351-4.521l-0.101-0.879l-0.7-2.521l-0.22-1.199l-0.15-1.76l-0.239-1.311l-2.391-5.699l-1.05-4.17
l-0.45-1.041l-0.42-0.74l-0.39-0.408l-0.28-0.701l-0.06-0.939l0.18-1.6l0.29-0.891l0.34-0.689l0.21-0.602l0.05-0.738l-0.22-6.391
l0.13-0.551l0.24-0.299l0.34-0.211l1.67-0.57l0.46-0.318l0.33-0.48l0.11-0.951l-0.08-3.43l0.42-2.859l-0.11-3.551l-0.159-1.1
l-0.24-1.061l-1.09-3.219l-0.391-1.951l-1-2.199l-0.22-0.779l-0.07-1.25l-0.26-0.842l-0.78-0.709l-0.68-0.07l-0.65,0.1l-1.81,0.57
l-1.07,0.5l-1.5,0.9l-0.54,0.23l-0.62,0.109l-0.609-0.08l-0.53-0.26l-0.479-0.34l-0.78-0.801l-1.08-1.34l-2.19-1.859l-0.72-0.871
l-0.3-0.5l-1.061-2.119l-1.31-1.881l-1.16-1.238l-0.27-0.65l-0.16-0.85l0.189-1.471l0.24-0.881l0.54-1.279l0.09-0.689l-0.14-0.76
l-0.59-0.871l-0.62-0.439l-2.47-0.82l-0.551-0.641l-0.489-0.959l-0.63-2.031l-0.53-0.949l-0.47-0.689l-2-1.221l-0.44-0.379
l-0.37-0.441l-0.26-0.469l-1.93-5.271l-0.87-1.52l-0.37-0.42l-0.44-0.359l-0.51-0.301l-1.81-0.629l-0.54-0.271l-0.33-0.629
L250.49,795l0.529-1.92l0.431-1l1.029-1.75l0.28-0.539l0.17-0.75l0.03-0.941l-0.7-3.27l-0.2-0.58l-0.649-2.5l-0.511-5.76
l-0.29-1.289l-0.39-1.191l-0.06-0.68l0.17-0.77l0.62-0.91l1.06-0.98l0.88-0.699l1.86-2.15l0.319-0.48l0.87-1.57l0.4-0.42l0.42-0.379
l1.52-0.85l0.421-0.381l0.34-0.471l0.529-1.078l0.311-0.48l0.39-0.42l0.431-0.381l1.899-1.299l0.43-0.371l0.381-0.42l0.3-0.859
l0.72-5.99l-1.52-13.91l-0.07-3.791l0.14-0.68l0.23-0.59l0.35-0.469l1.23-1.262l-0.04-0.85l-0.46-1.33l-3.141-4.91l-0.83-0.92
l-1.819-0.75l-2.19,0.41l-0.56,0.631l-0.66,0.58l-1.01,1.039l-1.021,0.42l-1.02-0.109l-0.71-0.77l-0.53-0.961l-0.33-1.039
l-0.61-0.91l-0.92-0.791l-2.18-1.01l-1.16-0.01l-0.76,0.24l-0.59,0.77l-0.75,0.711l-2.25,1.459l-1.58,0.721l-1.41-0.23l-9.8-4.311
l-1.11-0.648l-1.689-1.48l-1.21-0.859l-1.49-0.871l-2.73-1.061l-1.59-0.33l-1.5-0.029l-4.17,1.98l-2.11,1.299L209.38,717.31z"/>
<path id="region_10" region="Melaky" fill="#CCCCCC" stroke="#FFFFFF" stroke-width="0.5" d="M181.97,483.009l-1.04,1.34l-1.55,0.512l-1.98-0.541
l-1.92-1.09l-2.66-2.221l-1.359-0.1l-2.97,0.701l-23.95-2.33l-3.761,0.629l-3.659,0.02l-1.82,0.512l-0.89,1.029l-0.36,1.561
l-0.32,6.449l-0.27,1.51l-0.75,1.23l-1.04,1.17l-1.021,1.561l-0.859,1.629l-0.48,1.439l0.26,3.711l1.671,3.449l4.119,6.271
l1.051,3.17l0.05,3.199l-0.851,3.16l-1.739,2.98l-0.11-2.791l-1.13-0.559l-1.28,1.279l-0.55,2.76l0.479,2.35l1.98,4.891l0.61,2.221
l-1,5.139l-3.19,4.52l-3.83,4.24l-2.88,4.26l-2.11,4.781l-1.319,2.141l-1.79,2.059l-0.78,1.16l-0.91,2.6l-0.59,0.971l-2.99,3.119
l-0.76,1.191l-3.729,9.869l-2.681,4.391l-3.069-0.08l-0.341,5.439l-0.34,1.631l-0.8,1.67l-1.8,1.85l-8.37,13.1l-1,3.34l-0.7,0.861
l-1.3-0.67l-0.69,0.328l-1.96,4.781l-5.6,9.219l-1.16,3.361l-0.939,7.09l-0.051,3.58l0.62,2.77l6.94,9.891l1.529,5.26l2.631,2.471
l0.59,1.719l-0.561,5.131l-3.25,14.309l0.181,7.592l4.3,22.449v23l0.859,3.43l7.12,10.34l7.841,10.99l5.22,14.301l2.63,8.09
l0.46,3.629l-0.07,1.131l-0.68,2.879l-0.3,0.631L112.32,791l-0.199,0.791l0.13,0.449l0.46,0.85l0.09,0.291v7.119l-1.48,3.621
l-0.75,6.779l0.75,3.971l1.91,3.77l2.2,2.879l0.04,0.012l2.42,0.469l4.62,1.75l3.75,0.461l2.34,0.609l0.98,0.029l1.09-0.279
l2.32-0.77l1.279-0.18l1.26-0.041l1.04,0.09l1.021,0.25l0.82,0.32l0.68,0.371l0.76,0.609l1.44,1.67l4.529,6.609l0.79,0.811
l1.051,0.561l2.569,0.639l1.44,0.09l3.06-0.379l2.44,0.539l1.359,0.041l1.891-0.16l1.91,1.061l0.92,0.1l2.13-0.551l1.14-0.02
l3.24,1.43l2.01,1.27l1.11,0.541l2.5,0.721l1.28,0.219l1.279-0.039l3.71-1.051l1.301-0.699l1.279-1.34l0.92-1.861l0.931-1.359
l1.569-0.91l1.311-0.51l1.25-0.301l1.189,0.09l2.141,0.9l2.87,0.781l0.939,0.43l1.04,0.299l1.25-0.139l1.66-0.961l2.49-0.449
l2.279-0.1l1.101-0.432l0.74-0.76v-1.309l-0.57-0.951l-0.83-0.83l-4.66-3.391l-0.83-0.77l-0.68-0.77l-0.75-1.43l-0.34-0.971
l-0.15-1.129l0.32-1.42l1.2-1.811l0.739-1.48l0.44-1.75l-0.09-1.4l-0.38-1.229l-0.53-1.111l-0.41-1.18l-1.149-5.48l-0.74-2.119
l-0.25-1.301l-0.431-1.1l-0.56-0.891l-0.87-0.33l-0.729-0.369l-0.48-0.381l-0.41-0.889l-0.29-1.051l0.101-1.449l0.56-1.67l1.22-2.51
l0.41-1.771l0.08-1.609l-0.76-3.881l-0.39-0.969l-0.4-0.641l-0.54-0.619l-2.32-2.15l-1.479-3.051l-0.12-1.17l0.37-1.389l-0.15-1.191
l-0.49-0.99l-1.489-1.75l-0.53-1.01l-0.25-1.16l-0.07-2.34l-0.84-2.08l-2.31-10.99l-0.41-1.139l-0.53-1.041l-2.51-3.85l-0.47-1.029
l-0.601-2.041l-0.41-1.029l-3.949-5.67l-0.561-0.99l-0.41-1l0.08-1.109l0.48-0.98l1.83-2.961l0.689-0.92l4.36-3.709l2.85-1.52
l2.76-0.801l1.4-0.91l1-1.01l0.63-0.961l0.72-0.898l1.631-1.58l1.3-1.59l0.53-0.49l1.449-1.1l0.78-0.801l0.82-0.66l0.93-0.221
l2.61,1.891l3.439,1.65l1.141,0.9l0.859,1l0.82,0.76l1.04,0.35l1.479-0.461l2.11-1.299l4.17-1.98l1.5,0.029l1.59,0.33l2.73,1.061
l1.49,0.871l1.21,0.859l1.689,1.48l1.11,0.648l9.8,4.311l1.41,0.23l1.58-0.721l2.25-1.459l0.75-0.711l0.59-0.77l0.76-0.24l1.16,0.01
l2.18,1.01l0.92,0.791l0.61,0.91l0.33,1.039l0.53,0.961l0.71,0.77l1.02,0.109l1.021-0.42l1.01-1.039l0.66-0.58l0.56-0.631l2.19-0.41
l0.989-1.18l0.41-0.75l0.34-0.91l0.511-1.029l0.64-0.891l1.59-1.609l0.92-0.59l1.12-0.23l1.61,0.43l1.27,0.5l1.15,0.611l0.78,0.75
l0.729,0.568h0.82l0.87-0.398l1-0.352l1.42,0.291l4.29,1.41l1.01,0.109l4.15-3.17l0.649-1.01l0.22-1.109l-0.42-3.771l0.12-1.238
l0.391-1.4l0.659-1.221l2.851-3.199l0.729-1.07l0.561-1.07l0.43-1.08l0.311-2.33l1.46-5.65l0.8-1.939l0.64-0.93l3.16-3.211
l0.44-0.979l0.29-2.23l0.239-1.09l1.74-4.18l0.24-1.041l-0.021-1.051l-0.239-2.139l0.09-1.09l0.34-1.18l0.5-1.281l0.71-1.129
l0.89-1.041l-5.13-12.469l-8.26-8.66l-1.37-8.66l5.5-5.771l-1.38-8.648l-9.63-1.441l-12.38,1.441h-9.63l-4.12-11.531l-6.88-28.799
l1.37-11.51l-5.5-10.061l-11-2.881l-9.631-11.5l-1.38-10.049l-11-5.74l-13.76-11.48l-6.88-12.91l-1.37-14.34L181.97,483.009z"/>
<path id="region_3" region="Itasy" fill="#CCCCCC" stroke="#FFFFFF" stroke-width="0.5" d="M429.34,774l-22.53-2.26l-17.88-1.449l-11,1.449
l-11.01,10.17l-5.5,20.359l-11.01,17.461l-16.5,20.4L322.9,856.169l26.141-4.379l11,2.92l8.26-1.461l9.63-10.209l13.75-8.74
l13.76-2.92l12.38,1.459l4.12,5.83l15.14,2.91h15.131l11-7.279l4.13-11.66l-5.5-18.92l-11.771-19.93l-1.439-3.361l-3.12-1.209
l-3.41-2.279l-7.68-1.66L429.34,774z"/>
<path id="region_18" region="Ihorombe" fill="#CCCCCC" stroke="#FFFFFF" stroke-width="0.5" d="M278.88,1129.541l-9.63-1.48l-17.311-11.18l-1.37,0.23
l-3.76,0.068l-0.649,0.121l-0.591,0.209l-0.51,0.301l-0.47,0.34l-0.37,0.461l-0.33,0.488l-0.25,0.57l-0.21,0.641l-2.5,14.949
l-0.3,0.531l-0.4,0.439l-0.51,0.289l-0.58,0.24l-1.26,0.33l-0.58,0.221l-0.53,0.301l-0.37,0.43l-0.33,0.49l-0.199,0.609l-0.341,1.33
l-0.239,0.6l-0.41,0.41l-0.53,0.279l-4.51,1.061h-4.6l-1.37,0.199l-1.141,0.371l-0.46,0.33l-0.83,0.789l-0.319,0.5l-0.28,0.531
l0.41,1.24l0.89,1.658l2.4,3.371l1.62,2.77l0.6,1.76l0.35,0.791l0.29,0.83l1.011,5.309l0.02,0.682l-0.11,0.66l-0.47,1.18
l-0.189,0.629l-0.091,0.68l0.28,0.971l0.54,1.15l1.29,2.141l0.45,1.238l0.149,1.012l-0.189,0.619l-0.271,0.561l-0.369,0.449
l-1.721,1.51l-0.17,0.701l0.13,0.979l0.58,1.631l0.16,1.061l0.01,0.898l-0.37,1.281l-0.329,0.48l-0.49,0.289l-1.38,0.109
l-0.67,0.131l-0.46,0.369l-0.29,0.531l-0.511,1.979l-0.489,1.15l-0.19,0.65l-0.2,1.471l-0.05,1.559l0.05,0.852l0.17,0.898l0.61,1.98
l0.12,0.74l-0.15,0.59l-0.33,0.461l-0.47,0.34l-1.76,0.65l-0.471,0.34l-0.34,0.479l-0.91,2.352l-0.06,0.68l0.2,1.289l0.03,0.621
l-0.171,0.59l-0.38,0.43l-0.46,0.359l-1.66,0.76l-2.489,0.74l-1.15,0.48l-0.47,0.359l-0.38,0.51l-0.181,0.65l-0.119,0.711
l-0.19,0.629l-0.29,0.57l-0.34,0.49l-0.391,0.439l-0.68,0.98l-4.67,8.609l-0.8,2.59l-0.24,1.461l-0.26,3.141l-0.351,1.369
l-0.529,1.131l-3.11,4.299l-0.27,0.561l-0.221,0.609l-0.12,0.67l0.021,0.74l0.08,0.77l0.99,2.83l0.12,0.67l0.069,0.721l-0.01,0.76
l-0.14,0.691l-0.74,1.68l-0.17,0.52l-0.07,0.439l-0.1,1.65l-0.12,0.561l-0.17,0.559l-0.271,0.57l-0.66,1.061l-0.46,1.199l-1.18,4.66
l-0.9,2.42l-0.069,0.74l0.05,0.791l0.33,1.789l0.06,1.6l0.11,0.781l0.2,0.74l0.38,0.83l0.35,0.59l0.511,1.18l0.17,0.619l0.31,2.191
l0.17,0.75l0.311,0.85l0.3,0.58l0.31,0.51l0.311,0.369l0.92,0.92l1.09,1.352l3.25,3.328l0.63,0.422l0.87,0.369l1.67,0.289
l1.06,0.041l4.341-0.57l0.689,0.02l2.061,0.33l0.689-0.029l1.86-0.43l0.609,0.109l0.54,0.359l0.32,0.83l0.37,1.451l0.6,1.059
l0.36,0.461l0.56,1.051l0.49,1.949l0.21,0.6l0.46,0.5l0.641,0.371l1.26,0.119l2.43-0.18l1.43,0.18l1.95,0.541l0.74,0.02l0.7-0.07
l0.63-0.18l1.47-1.141l0.03-0.02l0.61-1.291l1.609-2.43l-0.08-9.98l2.311-14.449l1.729-2.27l21.521-12.439l20.96-8.602l5.319-1.119
l1.561-0.109l7.07,0.68l4.71-0.15l2.58,0.74l8.109,5.039l2.48,2.352l1.819-0.41l2.42,1.988l7.91,5.061l0.61,0.74l2.11,3.17
l6.22,13.971l0.37,1.18l1.05,1.949l0.27,0.691l0.261,1.34l0.199,0.67l0.101,0.209l2.06,3.17l0.311,0.74l0.17,0.641l0.939,1.98
l1.21,1.898l1.87,3.711l0.271,0.74l0.399,1.59l0.44,0.641l0.63,0.6l7.8,4.24l1.05,0.74l0.801,1.049l0.489,1.73l0.631,5.641
l-0.051,1.039l-0.359,1.08l-1.11,2.109l-0.34,1.191v1.26l0.33,1.18l0.46,1.16l0.63,2.449l0.01,1.221l-0.319,1.15l-0.511,1.049
l-0.359,1.08l-0.54,2.23l-0.62,0.949l-0.891,0.75l-2.01,1.25l-0.74,0.76l-0.329,1.021l0.239,1.219l0.561,1.521l0.46,2.529l0.51,1.25
l2.11,3.09l1.52,1.801l0.86,1.359l1.649,4.359l1.03,2.031l0.33,1.559l0.15,1.24l-0.07,0.93l-0.18,1.021l-0.24,0.59l-0.561,0.779
l-0.77,0.711l20.75,5.799l9.63-1.5l8.25-9.01l2.75-22.5l-2.75-25.471l-2.75-17.949l1.38-7.471l9.63-1.5l12.38,5.98l11,7.48h8.26
v-8.98v-14.93l-1.38-17.91l-9.63-19.379l-6.88-26.801l-5.5-10.41l-13.76-5.939h-11h-13.76l-11-1.49l-8.25-10.4l-2.76-14.84
l-4.12-10.381l-19.261-10.379l-20.63-5.93l-16.51-1.48L278.88,1129.541z"/>
<path id="region_15" region="Haute Matsiatra" fill="#CCCCCC" stroke="#FFFFFF" stroke-width="0.5" d="M398.56,1043.849l-15.13-10.318l-11.01-16.201
l-2.75-8.82l-9.63,2.941l-8.25-2.941l-9.63,4.41l-9.631,8.83l-8.25,8.84l-15.13,4.41l-13.76,7.371l-14.61,0.029l-1.439,2.699
l-0.72,0.971l-1.261,1.17l-0.34,0.43l-0.189,0.58l-0.03,0.711l2.09,11.93l0.11,1.439l-0.311,2.951l-0.189,0.639l-0.271,0.57
l-0.31,0.51l-0.42,0.381l-0.55,0.279l-0.631,0.17l-2.109,0.23l-0.57,0.25l-0.51,0.279l-0.561,0.26l-1.26,0.262l-1.46,0.908
l-1.1,0.48l-0.42,0.381l-0.311,0.549l-0.37,0.451l-0.6,0.219l-0.65,0.141l-0.58,0.23l-0.439,0.369l-0.34,0.471l-0.271,0.551
l-0.439,1.209l-0.33,0.51l-0.44,0.33l-1.25,0.33l-0.53,0.291l-0.399,0.398l-0.311,0.51l-0.14,0.65l0.14,2.09L261,1080.9l-0.15,0.67
l-0.24,0.59l-0.29,0.52l-4.119,4.871l-0.261,0.529l-0.1,0.68l0.08,0.66l0.689,3.211l0.051,1.539l-0.07,0.73l-0.63,2.609l-0.04,0.65
l0.109,0.65l1.82,7.789l0.07,0.721l-0.03,0.67l-0.12,0.66l-0.28,0.539l-0.399,0.4l-2.15,1.041l-0.29,0.42l-0.05,0.459l0.01,0.42
l0.261,1.182l0.149,1.289l-0.12,0.609l-0.25,0.541l-0.409,0.42l-0.48,0.32l-0.56,0.24l-1.261,0.35l17.311,11.18l9.63,1.48
l13.76-1.48l16.51,1.48l20.63,5.93l19.261,10.379l4.12,10.381l2.76,14.84l8.25,10.4l11,1.49h13.76h11l13.76,5.939l8.25-11.891
l12.38-7.42l16.51-8.91l-4.13-8.898l4.13-8.9l4.131-17.781l6.88-34.02l-4.13-10.35l-2.75-8.859l5.5-13.281l4.13-22.109l-13.761-1.48
l-4.13-7.359l-8.25-2.951l-17.88,7.371l-8.26,11.789H398.56z"/>
<path id="region_1" region="Diana" fill="#CCCCCC" stroke="#FFFFFF" stroke-width="0.5" d="M560.35,147.2l-0.96-0.58l1.149-1.93l0.11-1.89
l-0.89-1.42l-1.9-0.55l-2.26,0.11l-1.23,0.53l-0.51,1.3l-0.08,2.31l0.351,0.91l0.68,0.88l0.54,0.86l-0.14,0.87l-0.841,0.46
l-1.119-0.11l-1.051-0.5l-0.729-0.7l-1.48,0.63l-1.729-0.79l-1.62-0.48l-1.11,1.49l1.66,0.62l0.061,1.42l-0.61,1.92l-0.42,2.19
l0.51,4.82l0.73,2.38l1.06,1.36l0.39,0.18l0.261,0.27l0.3,0.21l0.479,0.02v-1.53h0.75l1.48,1.11l1.359,0.62l3.99,0.64l1.57-0.71
l0.66-0.13v0.27l0.2,0.55l0.369,0.55l0.53,0.26l1.13-0.07l1.2-0.24l1.09-0.49l0.74-0.83l-0.14-1.43l-1.28-1.2l-1.53-1.02l-0.81-0.89
l0.62-1.49l1.22-2.08l0.59-1.86l-1.33-0.79l-0.1-1.2l-0.811-2.51L560.35,147.2z M663.159,0l-1.92,1.13l-3.29,3.62l-0.34,0.82
l0.2,0.81l0.37,0.68l0.149,0.36l-0.319,0.29l-1.12,0.49l-0.48,0.55l-0.71,0.6l-0.689,0.77l-0.431,1.13l2.21,0.48l1.631,1.9
l0.84,2.43l-0.12,2.18l-0.811-0.84l-0.75,0.84l-3.59-5.05l-1.66-1.17l-1.619,1.89l-4.41,1.43l-1.48,2.06l4.05-0.21l1.21,0.21
l0.87,0.54l0.471,0.68l0.369,0.66l0.54,0.47l1.23,0.35l0.84-0.07l0.73,0.18l0.949,1.1l0.66,1.49l-0.27,0.6l-1.08,0.19l-0.74,0.68
l-0.88,0.51l-0.84,0.7l-0.601,1.26l-0.079,1.24l0.319,0.91l0.38,0.82l0.13,0.87l-0.619,2.08l-1.25,1.83l-1.641,0.6l-1.81-1.51
l-1.54,1.61l-1.4,2.76l-1.43,1.53l-1.62-2.01l-1.3,1.65l-1.34,0.84l-1.141,0.95l-0.729,2.01l-1.38-0.65l-1.561,0.41l-1.399,1.1
l-0.971,1.43l-0.199,0.91l0.21,1.59l-0.011,0.57l-1.25,2.42l-0.239,0.66l-0.301,6l-0.46,1.68l-1.04,1.21L627,61.41l-1.721,0.52
l-1.2-0.66l-3.319-6.44l-2.32-2.02l-3.76-0.76l-2.73-0.14l-1.18-0.35l-1.32-0.62l-1.239,0.12l-1.931,3.06l-1.319,1.08l4.489,2.22
l0.311-2.19l0.92,1.53l1.71,4.57l3.54,3.26l0.97,1.89l0.05,3.3l1.61-0.88l1.55-0.6l1.26,0.14l0.83,1.34l-0.27,0.32l-1.23,2.76
l0.04,0.77l0.63,1.37l0.08,0.93l-0.38,0.8l-0.609,0.55l-0.54,0.66l-0.04,1.14l0.489,1.17l0.54,0.09l0.601-0.17l0.689,0.43l1.63,2.43
l0.41,1.26l0.58,5.04l0.431,1.27l0.699,1.55l0.91,1.36l2.21,2.64l0.63,1.44l-0.239,3.02l-1.74,7.27l0.479,2.85l-1.18,0.56l-1.5,1.45
l-1.28,1.68l-0.54,1.27l-0.27,1.42l-0.65,1.81l-0.85,1.75l-3.05,4.1l-1.45,3.14l-2.48,8.88l-0.25,1.89l-0.06,3.71l0.35,1.76
l1.61,2.63l0.35,1.39l-4.09,4.98l-1.57,3.22l1.91,2.24l-2.729,3.49l-3.601,3.12l-4,2.34l-3.989,1.13l-1.181-0.13l-1.3-0.39
l-1.38-0.22l-1.37,0.33l-1.32,0.61l-1.09,0.16l-1.02-0.23l-5.82-2.31l-2.01-1.36l-0.061-1.84l-1.09-1.15l-0.76-1.27l-1-1.04
l-1.72-0.4l-0.391,3.09l0.061,1.56l0.33,1.52l0.74,1.29l1.93,2.56l0.87,3.14l1.92,3.95l0.24,0.99l-1.04,0.26l-1.301-0.71l-2.54-2.23
l0.04,0.57l-0.06,1.17l0.02,0.56l-1.319-0.19l-2.03,0.09l-2.06,0.35l-1.42,0.52l-1.091,1.14l-1.12,1.69l-0.96,2.02l-0.56,2.1
l-3.22-4.76l-1.271-0.65l-2.12,0.96l0.48,2.01l2.39,3.98l-0.39,1.54l-2.01,3.64l-0.62,1.83l-0.05,5.96l-0.771,1.75l1.82,2.93
l-1.51,2.76l-3.15,2.07l-3.11,0.8l-2.43-0.61l-3.26-1.6l-2.87-2.14l-1.22-2.27l1.14-1.37l0.26-0.87l-1.72-0.63l-0.34-0.61
l-0.09-0.76v-0.78l-0.28-1.89l-1.91-5.12l-0.49-2.76l-0.84-2.32l-1.68-0.95l-3.04,1.4l-0.57-1.98l-0.399-3.11l-0.761-2.89
l-1.68-1.28l-4.07-0.02l0.141,0.83l2.02,2.21l-1.72,0.66l-0.44,0.91l-0.029,0.99l-0.431,0.94l-1.3,0.57l-0.87-0.6l-0.24-1.26
l0.591-1.37l-0.62,0.21l-1.07,0.22l-0.62,0.34l-0.76-1.72l0.68-1.27l1.11-0.94l0.46-0.7l-0.84-1.2h-1.16l-1.18,0.72l-0.94,0.86
l-0.48,5.06l-0.899,2.79l-1.64-0.13l-2.221-0.73l-1.479,2.32l-0.88,3.37l-0.341,2.37l0.221,2.82l1.02,1.03l1.351,0.65l1.17,1.75
l-4.801,2.17l-0.869,6.31l1.699,7.4l2.87,5.42l1.24,0.98l4.42,1.79l5.28,3.47v1.43l-8.34,4.37l4,3.84l2.43,1.72l3.45,1.18v-0.01
l0.04-0.03l0.8-0.72l0.37-0.27l0.85-0.76l0.24-0.44l-0.08-0.61l-1.18-1.74v-0.58l0.33-0.38l2.449-0.66l0.53-0.25l0.42-0.28
l0.45-0.44l0.11-0.18l0.2-0.34l0.109-0.53l-0.01-0.63l-0.14-0.62l-0.381-1.14l-0.119-0.56l0.1-0.58l0.31-0.42l0.44-0.34l4.27-1.94
l0.45-0.31l2.12-1.8l0.95-0.59l4.27-1.94l3.66-2.62l1.03-0.54l0.55-0.22h0.57l0.51,0.31l0.271,0.91l-0.03,0.7l-0.21,0.64l-0.26,0.52
l-0.631,0.93l-1.79,2.13l-0.27,0.49l-1.31,1.82l-2.641,2.03l-0.33,0.47L545,227.94l-0.521,2.6v1.31l0.12,0.88l0.13,0.58l0.41,0.53
l0.649,0.41l1.301,0.2l0.75-0.15l0.569-0.32l0.69-0.87l0.39-0.37L550,232.6l0.63,0.21l1.38,1.52l2.779,3.77l0.681,0.53l4.21,2.32
l0.59,0.42l1.93,1.73l1.33,0.9l2.61,1.32l1.34,0.38l1.06,0.13l0.61-0.16l1.68-0.65l2.7-0.39l1.771-0.58l3.14-1.51l0.93-0.62
l1.261-1.09l0.449-0.32l0.511-0.28l0.56-0.18l0.97,0.4l1.23,0.96l4.14,4.71l0.66,0.52l1.28,0.61l3.479,1.15l0.561,0.35l6.84,5.34
l0.59,0.33l0.561,0.2l0.67,0.04l0.63-0.09l0.59-0.15l1.67-0.66l0.63-0.12H608l0.659-0.07l0.53-0.23l0.87-0.69l0.51-0.25l0.72,0.16
l0.73,0.53l2.37,3.61l0.31,0.62l0.221,1.39l0.27,0.51l0.41,0.3l0.71-0.08l0.46-0.35l0.39-0.45l0.29-0.47l0.79-0.79l2.83-1.85
l2.23-0.87l0.489-0.28l0.41-0.37l2.88-4.18l0.41-0.38l0.48-0.3l0.54-0.22l1.3-0.27l1.6-0.69l0.73,0.03l0.79,0.31l1.21,0.83
l0.66,0.35l0.72,0.23l2.02,0.28l0.681,0.21l0.67,0.26l5.82,3.31l0.54,0.09l9.17-10.01l5.5-18.44l11.01-2.83l1.37-9.92l2.75-8.5
l5.51-22.65l-6.88-22.63l6.88-7.07l1.37-19.78l5.5-9.88l-1.37-8.47l-8.26-1.42l6.88-9.87l9.63-9.88l10.08-10.37l-2.22-1.98
l-1.65-1.09l-1.19,0.14l-0.84,0.79l-0.77,0.13l-1.021-1.9l-0.319-1.34l0.08-1.25l0.479-1.19l0.87-1.17l0.59-2.49l-1.63-6.41
l0.66-3.06l-0.03,3.12l0.32,1.4l0.88,1.25l1.06,0.21l0.28-1.46l-0.24-2.98L699,60.49l-3.051-6.9l-2.149,2.64l-1.25-0.17l-1.41-1.77
l-2.68-2.24l1.159-1.08l1.221,0.11l1.33,0.61l1.529,0.36l0.84-0.56l-0.069-1.271l-0.63-1.41l-1.9-1.83l-0.46-0.86l-0.68-0.62
l-1.66-0.29l-1.561,0.15l-1.189,0.51l-0.95,0.95l-0.729,1.46l-0.091-2.47L683.8,44.3l-1.12-1.25l-1.05-1.74l-0.351-1.56l-0.05-1.31
l-0.31-1.3l-3.181-5.01l-1.26-0.78l-2,1.13l-0.52,1.5l1.56,3.16l-0.63,1.94l-0.851,0.59l-1.069,0.19l-2.19-0.08l-1.09-0.3l0.07-0.66
l0.479-0.77l0.15-0.58l-1.17-1.7l-0.88-0.79l-0.9,0.48l-1.17,2.01l-0.75,0.85l-0.56-0.39l-0.381-1.03l-0.189-0.96l0.3-0.63
l1.58-1.35l0.38-0.74l-0.89-0.96l-2.01-0.69l-2.261-0.33l-1.66,0.03l1.83-3.37l0.311-1.33l-1.33-0.67l0.32-1.28l0.579-1.1l0.87-0.89
l1.17-0.55l0.271,1.49l0.81,1.59l1.24,1.2l1.49,0.38l0.81-0.71l0.75-1.29l0.811-0.96l1.02,0.2l4.15,4.66l0.64-0.06l-0.24-1.67
l-1.949-4.16l-0.45-3.35l0.3-2.91l-0.28-2.73l-2.17-2.85l-0.729-1.34l-0.021-3.23L669.3,4.75l-3.03-3.49l-1.12-0.8L663.159,0z"/>
<path id="region_6" region="Bongolava" fill="#CCCCCC" stroke="#FFFFFF" stroke-width="0.5" d="M370.07,659.31l-1.72-0.211l-1.45-0.389l-1.189-0.631
l-0.84,0.361l-1.53,1.479l-2.061,1.141l-1.859,1.311l-1.01,0.49l-2.16,0.5l-1.08,0.398l-0.98,0.521l-1.42,0.529l-1.819,0.391
l-3.091,0.299l-1.63,0.541l-1.04,0.859l-0.42,0.961l-0.77,0.75l-1.09,0.469l-2.971,0.791l-2.29,0.33l-1.51,0.5l-3.52,2.129
l-1.061,0.51l-1.16,0.021l-1.399-0.16l-1.141,0.529l-1.14,0.67l-2.21,0.73l-1.39-0.051l-0.71-0.74l-0.091-2.229l-0.63-0.971
l-0.81,0.061l-2.271,1.049l-1.76,0.381l-1.41-0.09l-1.189-0.43l-1.23-0.631l-1.5-0.609L307.25,670l-1.19-0.51l-0.71-0.58
l-1.189-1.219l-0.9-0.521l-1.36-0.26l-0.89,1.041l-0.71,1.129l-0.5,1.281l-0.34,1.18l-0.09,1.09l0.239,2.139l0.021,1.051
l-0.24,1.041l-1.74,4.18l-0.239,1.09l-0.29,2.23l-0.44,0.979l-3.16,3.211l-0.64,0.93l-0.8,1.939l-1.46,5.65l-0.311,2.33l-0.43,1.08
l-0.561,1.07l-0.729,1.07l-2.851,3.199l-0.659,1.221l-0.391,1.4l-0.12,1.238l0.42,3.771l-0.22,1.109l-0.649,1.01l-4.15,3.17
l-1.01-0.109l-4.29-1.41l-1.42-0.291l-1,0.352l-0.87,0.398h-0.82l-0.729-0.568l-0.78-0.75l-1.15-0.611l-1.27-0.5l-1.61-0.43
l-1.12,0.23l-0.92,0.59l-1.59,1.609l-0.64,0.891l-0.511,1.029l-0.34,0.91l-0.41,0.75l-0.989,1.18l1.819,0.75l0.83,0.92l3.141,4.91
l0.46,1.33l0.04,0.85l-1.23,1.262l-0.35,0.469l-0.23,0.59l-0.14,0.68l0.07,3.791l1.52,13.91l-0.72,5.99l-0.3,0.859l-0.381,0.42
l-0.43,0.371l-1.899,1.299l-0.431,0.381l-0.39,0.42l-0.311,0.48l-0.529,1.078l-0.34,0.471l-0.421,0.381l-1.52,0.85l-0.42,0.379
l-0.4,0.42l-0.87,1.57l-0.319,0.48l-1.86,2.15l-0.88,0.699l-1.06,0.98l-0.62,0.91l-0.17,0.77l0.06,0.68l0.39,1.191l0.29,1.289
l0.511,5.76l0.649,2.5l0.2,0.58l0.7,3.27l-0.03,0.941l-0.17,0.75l-0.28,0.539l-1.029,1.75l-0.431,1L250.49,795l0.05,0.971
l0.33,0.629l0.54,0.271l1.81,0.629l0.51,0.301l0.44,0.359l0.37,0.42l0.87,1.52l1.93,5.271l0.26,0.469l0.37,0.441l0.44,0.379l2,1.221
l0.47,0.689l0.53,0.949l0.63,2.031l0.489,0.959l0.551,0.641l2.47,0.82l0.62,0.439l0.59,0.871l0.14,0.76l-0.09,0.689l-0.54,1.279
l-0.24,0.881l-0.189,1.471l0.16,0.85l0.27,0.65l1.16,1.238l1.31,1.881l1.061,2.119l0.3,0.5l0.72,0.871l2.19,1.859l1.08,1.34
l0.78,0.801l0.479,0.34l0.53,0.26l0.609,0.08l0.62-0.109l0.54-0.23l1.5-0.9l1.07-0.5l1.81-0.57l0.65-0.1l0.68,0.07l0.78,0.709
l0.26,0.842l0.07,1.25l0.22,0.779l1,2.199l0.391,1.951l1.09,3.219l0.24,1.061l0.159,1.1l0.11,3.551l-0.42,2.859l0.08,3.43
l-0.11,0.951l-0.33,0.48l-0.46,0.318l-1.67,0.57l-0.34,0.211l-0.24,0.299l-0.13,0.551l19.58,1.939l19.26-2.91l11.011-16.039
l16.5-20.4l11.01-17.461l5.5-20.359l11.01-10.17l11-1.449l17.88,1.449l22.53,2.26l-2.061-2.939l-4.5-2.42l-3.47-5.121l-1.42-5.42
l-3.74-3.289l-1.89-3.5l-3.41-16.119L397.77,724.4l-14.59-20.141l-9.56-25.398L370.07,659.31z"/>
<path id="region_8" region="Boeny" fill="#CCCCCC" stroke="#FFFFFF" stroke-width="0.5" d="M431.21,395.96l-3.41,0.99l-3.471,1.85l-3.729,1.41
l-3.899,0.59l-2,0.66l-1.29,1.16l-1,3.75l-0.82,1.6l-1.18-0.26l-0.341-2.691l1.311-3.84l4.89-9.889l1.12-1.201l1.71-1.129l1.37-1.17
l1.66-2.891l1.09-1.48l-0.021-1.41l-1.85-1.24l-3.75-1.559l-1.72-0.99l-1.18-0.971l-0.86-1.15l-1.34-2.83l-0.181-0.619l0.021-3
l-0.15-1.051l-0.33-0.879l-0.699-0.381l-1.71,0.381l-3.061,1.66l-4.63,1.359l-8.29,7.621l-11.31,8.238l-6.33,1.561l-1.181,1.23
l0.41,1.109l3.4,0.941l1.45,0.988l-2.5,0.75l-2.891-0.049l-2.92,0.299l-2.59,1.762l-1.3,1.238l-4.66,3.42l-2.98,2.842l-1.22,0.689
l-0.06-0.75l-0.2-0.531l-0.24-0.469l-0.18-0.58l-2.55,1.891l-6.931,7.85l-4.89,3.91l-2.08,2.189l-1.22,4.17l-1.601,3.119
l-0.359,1.84l0.54,0.861h1.26l1.5-0.211l1.21,0.131l1.189,1.77l-0.479,2.23l-2.91,4.58l-1.32,1.17l-1.31,0.75l-0.2,0.76l2.01,1.209
l0.96,0.221l3.54-0.221l2.73,0.98l4.55,4.291l2.17,0.979l2.63,4.73l1.2,3.02l-1.149,0.891l-2.221-1.74l-1.899-2.719l-2.11-2.061
l-2.9,0.279l0.771,2.061l0.08,2.48l-0.92,1.98l-2.181,0.5l-0.869-0.672l-1.23-2.18l-0.88-0.27l-0.63,0.75l-0.101,1.359l0.08,1.461
l-0.1,1.109l-2.42-2.02l-1.771-2.15l-3.859-7.98l-1.391-2.09l-1.75-1.789l-2.399-1.98l2.029-1.5l0.761-1.629l0.52-1.82l1.271-2.061
l-0.891-1l-0.439-1.1l-0.15-1.189l-0.01-1.342l-0.53-0.77l-1.28-0.459l-2.76-0.361l-5.45,0.021l-2.63,0.51l-2.5,1.01l-2.529,1.58
l-2.58,2.029l-2.271,2.371l-1.59,2.6l-0.65,2.529l1.49-0.709l2.57-2l2.649-1.381l-0.02,2l-0.84,1.23l-1,1l-0.47,1.219l0.72,1.951
l1.07,1.41v0.699l-2.54-0.09l-2.98-1.629L306,441.55l-1.91,0.15l-0.93-0.09l-1.591-0.361l-0.909-0.43l-0.4-0.92l-0.09-1.801
l0.2-3.779l-0.82-1l-2.38-0.34l-1.7,0.1l-1.48,0.291l-1.38,0.5l-6.689,3.93l-2.47,0.359l-3.971-2.549l-1.609-0.191h-1.681
l-1.649-0.43l-1.82-0.721l-1.14,0.07l-3.62,2.361l-3.54,3.789l-0.8,1.57l0.64,1.01l1.18,1l0.851,1.449l0.06,1.16l-0.27,0.891
l-0.37,0.85l-0.23,1l-0.1,2.891l0.1,0.289l-0.859,1.281l-1.75,1.77l-0.33,1.27l1.13,5.881l-1.07,1.969l-0.81,0.262l-0.75-2.23
l-1.92,0.959l-0.07-1.148l1.189-3.311l-0.029-1.621l-0.16-0.43l-0.41-0.279l-0.84-1.189l-0.82-3.182l-1.43,0.941l-0.81,0.389
l-0.761,0.23l-17.93,1.951l-1,0.92l0.05,1.449l0.891,1.92l1.31,1.369l2.15,0.82l0.279,0.99L240,465.371l-1.561,1.09l-3.729,1.42
l-1.181,1.09l-0.93,1.471l-1.09,1.238l-1.68,0.561l-1.74-0.34l-0.82-0.98l-0.18-1.49l0.15-1.939l0.609-2.32l0.061-0.799
l-0.061-1.061l-0.109-0.561l-1.921-6.35l-0.159-3.631l-0.25-1.648l-0.771-0.711l-4.29,2.971l-6.76,2.93l-2.98,1.75l-2.439,2.369
l-2.47,3.111l-3.74,6.289l-2.16,2.77l-3.18,2.041l-6.4,3.061l0.9,0.779l-1.45,0.65l-3.16,0.5l-1.52,0.42l-1.53,0.9l-0.82,0.949
l-0.67,1.109l7.5,8.891l1.37,14.34l6.88,12.91l13.76,11.48l11,5.74l1.38,10.049l9.631,11.5l11,2.881l5.5,10.061l20.64-4.311
l12.38,5.75h23.38l4.13,7.189l8.25,11.52l12.38,10.08l6.88-4.32l5.511-12.959l6.87-4.32l6.88-8.629l12.38-2.881l8.26-20.119
l4.62-19.041l14.63-2.5l16.51-1.43l13.76,1.43l12.38,5.74l9.631,4.311l4.119-5.74l-5.5-8.611l-12.38-10.049l8.25-8.6l8.261-10.041
l-1.381-10.029l-6.88-10.02l-8.25-12.891l-4.13-24.311l-4.12-18.58L431.21,395.96z"/>
<path id="region_9" region="Betsiboka" fill="#CCCCCC" stroke="#FFFFFF" stroke-width="0.5" d="M471.47,504.8l-9.63-5.73l-9.63-5.74l-8.261,10.041
l-8.25,8.6l12.38,10.049l5.5,8.611l-4.119,5.74l-9.631-4.311l-12.38-5.74l-13.76-1.43l-16.51,1.43l-14.63,2.5l-4.62,19.041
l-8.26,20.119l-12.38,2.881l-6.88,8.629l-6.87,4.32l-5.511,12.959l-6.88,4.32l-12.38-10.08l-8.25-11.52l-4.13-7.189h-23.38
l-12.38-5.75l-20.64,4.311l-1.37,11.51l6.88,28.799l4.12,11.531h9.63l12.38-1.441l9.63,1.441l1.38,8.648l-5.5,5.771l1.37,8.66
l8.26,8.66l5.13,12.469l1.36,0.26l0.9,0.521l1.189,1.219l0.71,0.58l1.19,0.51l4.27,0.871l1.5,0.609l1.23,0.631l1.189,0.43l1.41,0.09
l1.76-0.381l2.271-1.049l0.81-0.061l0.63,0.971l0.091,2.229l0.71,0.74l1.39,0.051l2.21-0.73l1.14-0.67l1.141-0.529l1.399,0.16
l1.16-0.021l1.061-0.51l3.52-2.129l1.51-0.5l2.29-0.33l2.971-0.791l1.09-0.469l0.77-0.75l0.42-0.961l1.04-0.859l1.63-0.541
l3.091-0.299l1.819-0.391l1.42-0.529l0.98-0.521l1.08-0.398l2.16-0.5l1.01-0.49l1.859-1.311l2.061-1.141l1.53-1.479l0.84-0.361
l1.189,0.631l1.45,0.389l1.72,0.211l7.271-0.551l6.56-1.699l1.71-0.199l2.301,0.129l4.06,0.77l4.52,0.25l1.471-0.318l1.74-0.891
l1.359,0.061l1.09-0.16l0.891,0.049l0.689,1.041l1.15,3.66l0.26,1.24l-0.04,1.299l-0.42,2.41l0.46,0.98l1.24,0.539l5.76,0.051
l3.1,0.41l2.32,0.75l1.07,0.91l1.359,1.639l1.011-0.34l0.659-0.84l1.16-2.15l0.67-0.908l1.721-1.471l1.02-0.6l1.17-0.41l4.18-0.58
l1.141-0.43l3.67-2.75l1.24-0.641l1.649-0.48l2.811-0.27l2.52,0.029l2.891,0.49l4.689,1.6l2.12,1.031l1.07,0.879l-0.03,0.951
l0.05,0.949l0.19,1.189l0.81,2.281l0.67,0.91l0.851,0.74l3.21,1.609l0.93,0.709l0.72,0.891l0.54,1.07l0.95,1.07l1.72,0.789
l3.09,0.881l4.671,0.68l3.689-0.551l1.53,0.531l0.76,0.959l1.28,2.24l1.04,0.939l2.67,0.301l4.29-0.221l15.75-2.939l3.2-1.17
l6.17-1.4l3.609-5.02l2.92-5.471l0.32-1.27l-0.31-1.369l-0.08-0.881l0.05-1.34l0.25-0.76l0.33-0.561l1.229-1.18l0.78-1l0.29-0.84
l0.09-0.74l-0.06-1.84l0.189-1.52l0.29-0.82l0.36-0.561l0.36-0.27l0.289-0.17l0.471-0.18l0.55-0.15l0.66-0.061l0.649,0.09
l0.75-0.039l0.801-0.23l1.279-1.17l0.54-0.84l0.33-0.84l0.51-3.529l0.24-4.211l0.37-1.73l0.48-0.58l1.21-0.4l0.33-0.488l0.18-0.66
v-2.641l0.29-1.529l0.39-0.76l0.48-0.531l1.16-0.85l0.71-0.711l0.14-0.629l-0.09-1.461l0.28-1.139l0.06-0.75l-0.13-0.631l-0.48-0.27
l-2.06-0.23l-0.51-0.41l-0.341-0.639l-0.189-1.111l0.12-0.73l0.29-0.568l1.45-1.16l0.609-0.75l0.38-0.951l1.07-4.84l0.31-0.9
l0.341-0.67l1.06-1.068l0.78-0.971l1.359-2.1l0.561-1.16l0.29-0.92l-0.54-2.031l-0.07-1.189l0.19-0.689l0.35-0.541l0.86-0.719
l0.68-0.881l2.35-4.369l0.511-1.57l0.17-1.131l-0.2-0.6l-0.24-0.539l-0.24-0.721l-0.21-0.92l-0.109-1.529l-0.23-0.891l-0.29-0.68
l-0.199-0.781l-0.091-1.08l0.12-1.92l-0.17-0.99L545,581.14l-0.561-0.25l-1.36-0.199l-1.449,0.059l-0.71-0.059l-0.65-0.141
l-0.57-0.23l-1.89-1.289l-1.56-1.611l-2.49-3.58l-0.07-0.539l-0.07-2.871l-0.29-1.049l-0.46-0.75l-0.489-0.561l-0.07-0.561
l1.229-3.709l0.04-1l-0.229-0.711l-0.46-0.34l-1.04-0.549l-0.561-0.23l-0.489-0.291l-0.431-0.369l-0.31-0.471l-0.49-1.1l-0.319-0.48
l-0.4-0.41l-0.44-0.34l-0.5-0.299l-0.449-0.461l-0.381-0.619l-0.319-2.041l-0.23-0.699l-0.29-0.49l-0.37-0.41l-0.8-0.619
l-0.54-0.541l-0.33-0.379l-0.25-0.5l-0.38-1.191l-0.29-0.51l-0.34-0.449l-0.37-0.41l-0.68-0.9l-1.64-1.539l-0.631-0.961l-0.529-1.41
l-0.29-1.129l0.1-0.861l0.271-0.809l0.51-0.98l0.12-0.811l-0.15-4.18l-0.42-2.84l-0.35-1.221l-0.45-1.129l-1.66-3.08l-0.17-0.6
l-0.92-5.25L515.67,518l-16.69-4.59l-9.63-4.311l-5.5-4.299H471.47z"/>
<path id="region_12" region="Atsinanana" fill="#CCCCCC" stroke="#FFFFFF" stroke-width="0.5" d="M592.47,970.16l2.8-8.709l6.31-17.041l9.061-19.02
l0.31-1.5l-0.609-1.77l-2.67-3.73l-0.46-1.35l0.989-1.201l1.45,1.051l1.351,1.9l0.699,1.449l3.561-10.561l-0.061-4.35l0.25-2.719
l3.75-18.381l13.86-35.631l10-36.43l4.01-6.17l8.53-19.719l5.71-21.541l6.45-13.52l2.63-7.91l0.81-1.42l2.09-2.641l0.761-1.469
l2.739-22.961l3.341-6.41l1.1-0.719l1.12-0.461l0.66-0.65l-0.25-1.32l-0.521-0.85l-1.22-1.469l-0.51-0.842l-0.45-1.58l-0.14-1.988
l0.14-2.021l5.35-17.479l3.851-13.721l1.31-7.961l-0.609-7.459l-3.19-17.199l-15.84,1.549l-4.13,8.66v8.66l-13.761,4.33l-16.5,1.439
l-15.13,2.891l-4.13,11.561h-13.76l-6.88,2.889l6.88,8.67l9.63,11.58l1.38,11.57l-13.76,8.689l-13.75,2.9l-4.13,15.939v23.211
l5.5,17.42l9.63,26.16v21.83l-9.63,2.92l-1.37,17.48l-19.26,5.83l4.12,21.889h-9.63l-4.12,26.301l-17.88-1.461l-8.261-7.309
l-8.25,5.84l-15.42,3.039l-3.41,5.801l-0.739,0.869l-1.681,1.531l-1.87,1.359l-0.819,0.801l-0.34,0.459l-0.61,1.02l-0.26,0.682
l-0.181,0.869l0.011,4.07l-0.24,1.029l-0.4,1.221l-3.01,5.459l-0.49,1.99l-0.46,5.5l-0.08,5.881l-0.31,2.15l-0.51,1.129l-1.141,3.33
l-1.81,7.51l-0.41,3.01l0.46,9.65l0.25,1.02l0.33,0.48l0.4,0.41l0.3,0.51l0.68,1.73l0.38,0.449l0.42,0.361l1.771,0.67l0.529,0.289
l0.48,0.35l1.16,1.26l0.43,0.371l1,0.619l0.41,0.4l0.32,0.461l0.31,0.51l0.37,0.52l0.5,0.471l0.71,0.439l0.7,0.199l0.72,0.021
l1.29-0.271l2.88-0.17l0.65-0.129l0.58-0.23l1.979-1.33l0.54-0.23l0.62-0.199l0.68-0.109l0.71-0.051l1.431,0.16l1.359,0.299
l0.721,0.08l0.739,0.012l0.71-0.08l0.61-0.182l0.51-0.289l1.25-1.189l1.46-0.951l0.58-0.229l1.3-0.311l1.341-0.15l1.029,0.039
l0.591,0.121l1.989,1.27l2.12,1.74l1.19,0.73l0.97,0.42l0.7-0.02l0.59-0.201l0.52-0.289l0.381-0.42l0.22-0.49l-0.021-0.58
l-0.75-1.609l-0.149-0.621l-0.061-0.67l0.101-0.65l0.38-1.25l3.359-5.57l0.181-0.619l0.109-0.711l0.37-1.27l0.311-0.5l1.1-1.32
l0.23-0.559l0.22-1.301l0.22-0.58l0.33-0.49l0.69-0.859l0.109-0.5l-0.17-0.51l-0.6-0.98l-0.19-0.561v-0.619l0.221-0.52l0.31-0.471
l0.41-0.381l0.49-0.33l0.649-0.229l0.75-0.131l0.99-0.039l0.68,0.17l0.561,0.299l0.41,0.391l0.34,0.459l2.319,4.121l0.37,0.43
l1.931,1.439l2.42,1.432l1.33,0.559l1.14,0.301l0.76-0.01l0.721-0.08l3.43-0.92l1.17-0.1l0.7,0.209l0.68,0.42l0.63,0.59l1.88,1.301
l0.54,0.49l0.34,0.479l0.46,1.15l0.141,0.66v1.51l-0.07,0.74l0.14,0.84l0.37,0.83l0.971,0.98l0.85,0.41l5.51,1.25l7.78-0.07
l9.04,2.5L592.47,970.16z"/>
<path id="region_17" region="Atsimo-Atsinanana" fill="#CCCCCC" stroke="#FFFFFF" stroke-width="0.5" d="M454.96,1196.33l-9.631-1.48l-17.88-8.92l-5.51-8.92
l-8.25,11.891l5.5,10.41l6.88,26.801l9.63,19.379l1.38,17.91v14.93v8.98h-8.26l-11-7.48l-12.38-5.98l-9.63,1.5l-1.38,7.471
l2.75,17.949l2.75,25.471l-2.75,22.5l-8.25,9.01l-9.63,1.5l-20.75-5.799l-1.53,1.76l-0.6,1.039l-1.48,3.51l-2.34,4.271l-1.8,4.779
l-0.29,1.17l-0.09,1l0.5,1.221l1.04,1.539l4.069,3.381l2.381,1.549l0.89,0.75l0.68,0.98l1.03,2.279l0.62,1.031l0.84,0.799
l1.04,0.621l1.14,0.51l6.181,1.529l8.27,3.051l3.99,2.619l0.729,0.74l0.42,0.75l0.11,0.49l-0.33,2.211l0.34,1.039l1.25,1.92
l0.41,1.189l0.73,3.961l1.02,0.959l1.88,0.471l6.101,0.18l2.09,0.721l1.13,0.799l0.92,0.891l0.76,0.881l3.271,4.949l0.45,1.1
l0.14,1.24l-0.24,1.221l-0.89,2.41l-0.5,2.539l-0.05,2.09l0.189,1.281l0.391,1.16l0.84,0.92l1.229,0.549l1.99-0.02l1.56-0.25
l3.16-1.01l1.87-1.01l0.891-0.6l0.81-0.82l0.53-0.971l0.979-2.33l0.61-1.061l1.479-1.83l0.61-1.02l0.31-1.189l-0.119-1.25
l-0.421-1.131L418,1411.82l-0.95-2.289l-0.34-1.291l-0.23-1.289l0.021-1.352l0.319-1.25l0.771-0.889l1.16-0.33l3.22,1.119
l1.479,0.27l3-0.908l1.051-0.672l0.63-0.799l0.21-0.891l-0.021-0.99l-0.68-3.648l0.04-3.102l0.74-0.74l1.609-0.199l7.82,2.25
l1.53,0.791l2.85,1.979l14.07,7.791l5.51,4.43l0.19,0.08l0,0l0.31-0.83l1.91-4l0.72-3.041l0.03-0.309l-0.03-0.67l-0.47-0.381
l-0.22-0.35l0.72-0.621l0.12-0.02l1.149-0.42h0.23l0.56-0.5l1.75-1.139l0.76-0.762l1.931-3.529l5.97-16.141l5.65-25.459l-0.45-3.109
l-1.94-1l-1.81-0.182l-0.76-0.699l1.149-2.609l1.221-1.65l0.63,0.26l0.62,1.381l1.27,1.639l13.02-40.1l2.671-17.359l4.13-11.691
l3.72-13.26l0.61-11.25l2.109-7.209l2.62-17.9l-11.55-9.811H486.6l-13.76-5.959l-4.13-13.391l-9.62-5.949L454.96,1196.33z"/>
<path id="region_20" region="Atsimo-Andrefana" fill="#CCCCCC" stroke="#FFFFFF" stroke-width="0.5" d="M280.78,1042.4l0.261-0.59l0.189-0.609l0.13-0.602
l0.82-10.66l-12.93,2.121l-11,2.939l-13.76,14.74l-23.381,8.85l-11.01,13.281l-8.25,8.859l-12.38-1.471l-6.88-7.389l-15.13-1.471
l-5.5,13.289v29.57l-10.21,15.93l-2.561,1.352l-2.489,1.93l-3.94,1l-5.52,2.66l-8.44,0.299l-3.62,0.961l-3.3,2.049l-0.96-3.18
l-0.601-0.869l-1.109-0.67l-0.48,0.119l-0.979,1.771l-2.15,2.289l-1.02-0.07l-1.771-3.439l-3.62-2.131l-4.09,0.23l-4.01,1.609
l-3.34,2l-1.9,1.84l-2.7,3.762l-1.779,0.699l-3.971,1.01l-2.27,0.359l-2.44-0.559l-0.97-0.611l-1.28-1.299l-0.76-0.51l-1.51-0.42
l-1.44-0.17l-1.39-0.352l-1.311-1.01l-0.489-1.039l-0.45-2.66l-0.561-1.15l-2.659-2.891l-1.78-3.27l-0.85-2.07l-0.37-1.559
l-0.811-1.611l-3.62-2.99l-0.819-2.699l-0.271-2.73l-0.729-1.859l-2-3.891l-0.25-1.18l-0.12-2.48l-0.32-1.16l-0.76-1.1l-3.05-2.279
l-2.15-2.891l-1.1-2.08l-0.49-1.84l-1.07-1.5l-4.68-2.66l-1.07-1.549l-0.92-6.111l-0.51-1.5l-1.26-1.279l-3.931-2.65l-1.62-1.709
v-0.74l-2.09,2.039l-0.87-0.02l-0.859-2.02l-0.69,2.91l-2.3,5.439L27.68,1086v31.5l-2.42-1.439l-2.11,0.289l-1.88,1.49l-7.359,8.9
l-1.221,2.199l-0.51,4.58l0.18,5.98l-0.43,5.551l-2.24,3.199l0.7-4.299l-0.16-2l-1.279-1.701l-0.931,1.24l-0.74,1.35l-0.489,1.42
l-0.17,1.58l0.819,3.221l-0.319,0.359l-0.5,0.291l-0.471,0.18l-0.22,0.049l-0.37,0.65l-0.51,0.4l-0.43,0.551l-0.19,1.199v2.82
l-0.24,1.221l-1.069,2.359l-0.24,1.311l0.04,10.719l1.5,4.75l3.77,0.061l0.101,2.141l0.43,2.09l0.19,2.02l-0.721,1.85l-2.319-2.189
l-2.99,0.279l-2.351,1.84l-0.279,2.49l1.21,2.75l0.729,2.93l0.04,1.131l-0.1,1.199l0.03,1.18l2.6,5.391l1.54,5.73l1.14,10.939
l-0.43,5.48l0.05,2.789l0.75,2.762l0.601,1.068l1.489,2.012l0.54,1.029l0.65,4.23l1.31,3.359l0.57,6.221l1.38,3.238l0.59,4.9
l0.49,1.611l1.26,2.58l2.28,3.609l3.771,4.23l2.01,1.5l1.569,1.49l1.801,3.75l1.189,1.719l7.51,5.58l2.99,3.291l1.5,4.979
l1.45,8.932l0.47,10.709l1.15,4.17l0.42,2.68l0.27,0.66l0.87,0.801l0.74,0.209l0.7,0.1l0.75,0.451l4.67,4.5l2.1,2.891l2.931,2.469
l1.18,1.65l0.35,1.17l-0.05,0.99l-0.68,2.01l-0.5,0.82l-1.69,1.619l-0.189,2.221l1.49,3.131l0.199,1.939l-1.899,2.629l-7.38,3.281
l-2.431,2.34l-0.51,3.779l0.22,8.49l-1.56,2.471l1.36,2.139l0.72,2.17l0.92,4.781l1.31,3.539l0.13,1.381l-0.26,1.18l-0.97,2.221
l-0.21,1.148l1.92,11.631l-1.46,20.699l1.82,18.01l3.72,8.602l3.34,3.559l7.63,5.25L68,1455.8l0.479,0.98l0.34,2.479l0.301,1.08
l0.59,0.941l0.56,0.529l0.53,0.439l4.7,5.18l1.109,2.051l1.061,4.029l-1.061,10.82l1.12,3.939l7.96,10.99l1.09,4.021l0.711,9.52
l1.26,2.629l8.75,5.951l1.24,0.33l3.5-0.031l3.89,2l6.64,7.301l3.86,1.6l2.1,0.1l1.771,0.361l1.67,0.74l1.82,1.219l2.8,2.84
l1.51,0.881l1.75-0.35l0.49,2.719l-0.94,1.32l-1.85-0.061l-2.2-1.59l-3.38-3.969l-1.92-1.721l-2.12-0.9l0.8,2.65l3.57,4.07
l1.63,4.689l2.02,1.121l16.19,3.359l11.55,0.641l11.61,1.689l5.399-18.68l19.261-16.701l15.13-15.17l4.12-18.189l-2.75-21.189
v-15.121l5.51-13.59l2.75-22.629l5.5-16.57l6.88-9.031l20.63-4.51l5.5-21.049l-6.87-15.021l-20.64,1.5l-0.3-14.459l13.25-21.811
l-4.101-21.26l-1.47,1.141l-0.63,0.18l-0.7,0.07l-0.74-0.02l-1.95-0.541l-1.43-0.18l-2.43,0.18l-1.26-0.119l-0.641-0.371l-0.46-0.5
l-0.21-0.6l-0.49-1.949l-0.56-1.051l-0.36-0.461l-0.6-1.059l-0.37-1.451l-0.32-0.83l-0.54-0.359L219,1280.88l-1.86,0.43
l-0.689,0.029l-2.061-0.33l-0.689-0.02l-4.341,0.57l-1.06-0.041l-1.67-0.289l-0.87-0.369l-0.63-0.422l-3.25-3.328l-1.09-1.352
l-0.92-0.92l-0.311-0.369l-0.31-0.51l-0.3-0.58l-0.311-0.85l-0.17-0.75l-0.31-2.191l-0.17-0.619l-0.511-1.18l-0.35-0.59l-0.38-0.83
l-0.2-0.74l-0.11-0.781l-0.06-1.6l-0.33-1.789l-0.05-0.791l0.069-0.74l0.9-2.42l1.18-4.66l0.46-1.199l0.66-1.061l0.271-0.57
l0.17-0.559l0.12-0.561l0.1-1.65l0.07-0.439l0.17-0.52l0.74-1.68l0.14-0.691l0.01-0.76l-0.069-0.721l-0.12-0.67l-0.99-2.83
l-0.08-0.77l-0.021-0.74l0.12-0.67l0.221-0.609l0.27-0.561l3.11-4.299l0.529-1.131l0.351-1.369l0.26-3.141l0.24-1.461l0.8-2.59
l4.67-8.609l0.68-0.98l0.391-0.439l0.34-0.49l0.29-0.57l0.19-0.629l0.119-0.711l0.181-0.65l0.38-0.51l0.47-0.359l1.15-0.48
l2.489-0.74l1.66-0.76l0.46-0.359l0.38-0.43l0.171-0.59l-0.03-0.621l-0.2-1.289l0.06-0.68l0.91-2.352l0.34-0.479l0.471-0.34
l1.76-0.65l0.47-0.34l0.33-0.461l0.15-0.59l-0.12-0.74l-0.61-1.98l-0.17-0.898l-0.05-0.852l0.05-1.559l0.2-1.471l0.19-0.65
l0.489-1.15l0.511-1.979l0.29-0.531l0.46-0.369l0.67-0.131l1.38-0.109l0.49-0.289l0.329-0.48l0.37-1.281l-0.01-0.898l-0.16-1.061
l-0.58-1.631l-0.13-0.979l0.17-0.701l1.721-1.51l0.369-0.449l0.271-0.561l0.189-0.619l-0.149-1.012l-0.45-1.238l-1.29-2.141
l-0.54-1.15l-0.28-0.971l0.091-0.68l0.189-0.629l0.47-1.18l0.11-0.66l-0.02-0.682l-1.011-5.309l-0.29-0.83l-0.35-0.791l-0.6-1.76
l-1.62-2.77l-2.4-3.371l-0.89-1.658l-0.41-1.24l0.28-0.531l0.319-0.5l0.83-0.789l0.46-0.33l1.141-0.371l1.37-0.199h4.6l4.51-1.061
l0.53-0.279l0.41-0.41l0.239-0.6l0.341-1.33l0.199-0.609l0.33-0.49l0.37-0.43l0.53-0.301l0.58-0.221l1.26-0.33l0.58-0.24l0.51-0.289
l0.4-0.439l0.3-0.531l2.5-14.949l0.21-0.641l0.25-0.57l0.33-0.488l0.37-0.461l0.47-0.34l0.51-0.301l0.591-0.209l0.649-0.121
l3.76-0.068l1.37-0.23l1.261-0.35l0.56-0.24l0.48-0.32l0.409-0.42l0.25-0.541l0.12-0.609l-0.149-1.289l-0.261-1.182l-0.01-0.42
l0.05-0.459l0.29-0.42l2.15-1.041l0.399-0.4l0.28-0.539l0.12-0.66l0.03-0.67l-0.07-0.721l-1.82-7.789l-0.109-0.65l0.04-0.65
l0.63-2.609l0.07-0.73l-0.051-1.539l-0.689-3.211l-0.08-0.66l0.1-0.68l0.261-0.529l4.119-4.871l0.29-0.52l0.24-0.59l0.15-0.67
l0.069-0.721l-0.14-2.09l0.14-0.65l0.311-0.51l0.399-0.398l0.53-0.291l1.25-0.33l0.44-0.33l0.33-0.51l0.439-1.209l0.271-0.551
l0.34-0.471l0.439-0.369l0.58-0.23l0.65-0.141l0.6-0.219l0.37-0.451l0.311-0.549l0.42-0.381l1.1-0.48l1.46-0.908l1.26-0.262
l0.561-0.26l0.51-0.279l0.57-0.25l2.109-0.23l0.631-0.17l0.55-0.279l0.42-0.381l0.31-0.51l0.271-0.57l0.189-0.639l0.311-2.951
l-0.11-1.439l-2.09-11.93l0.03-0.711l0.189-0.58l0.34-0.43l1.261-1.17l0.72-0.971L280.78,1042.4z"/>
<path id="region_22" region="Ansy" fill="#CCCCCC" stroke="#FFFFFF" stroke-width="0.5" d="M297.41,1236.88l-7.07-0.68l-1.561,0.109l-5.319,1.119
l-20.96,8.602l-21.521,12.439l-1.729,2.27l-2.311,14.449l0.08,9.98l-1.609,2.43l-0.61,1.291l-0.03,0.02l4.101,21.26l-13.25,21.811
l0.3,14.459l20.64-1.5l6.87,15.021l-5.5,21.049l4.35,14.98l12.851-0.641l15.13,4.521l8.25,7.529l-5.5,18.1l5.5,13.58l12.38,10.58
v13.6l-4.12,16.65l2.75,12.121v18.189l22.01,12.15l9.761,17.219l16.35-4.049l12.7-0.361l11.26,1.551l3.65,1.061l1.72,0.059
l7.52-2.08l1.051-0.77l1.069-1.311h1.13l1.091,0.422l0.89,0.059l1.13-0.939l1.54-2.17l1.25-0.811l3.21-1.26l1.18-0.83l2.4-2.27
l6.42-4.68l0.09-0.35l0.32-0.131l1.28,0.189l1.13,2.721l0.37,0.52l1.08-0.641l5.27-6.449l3.09-2.9l1.87-1.189l3.229-1.25l0.801-1
l0.47-2.359l-0.061-2.08l-0.26-1.891l0.101-1.76l0.97-1.711l0.01,1.91l0.36,1.791l0.75,1.609l1.13,1.371l1.24-3.041l-0.94-7.789
l1.53-3.73l5.63-4.33l0.78-1.91l-0.07-3.76l0.31-1.801l2.74-4.369l9.22-23.471l2.87-19.49l-1.51-6.59l0.54-0.73l2.34,1.121
l1.33,0.439l0.851-0.77l6.29-17.5l-0.19-0.08l-5.51-4.43l-14.07-7.791l-2.85-1.979l-1.53-0.791l-7.82-2.25l-1.609,0.199l-0.74,0.74
l-0.04,3.102l0.68,3.648l0.021,0.99l-0.21,0.891l-0.63,0.799l-1.051,0.672l-3,0.908l-1.479-0.27l-3.22-1.119l-1.16,0.33
l-0.771,0.889l-0.319,1.25l-0.021,1.352l0.23,1.289l0.34,1.291l0.95,2.289l1.739,3.189l0.421,1.131l0.119,1.25l-0.31,1.189
l-0.61,1.02l-1.479,1.83l-0.61,1.061l-0.979,2.33l-0.53,0.971l-0.81,0.82l-0.891,0.6l-1.87,1.01l-3.16,1.01l-1.56,0.25l-1.99,0.02
l-1.229-0.549l-0.84-0.92l-0.391-1.16l-0.189-1.281l0.05-2.09l0.5-2.539l0.89-2.41l0.24-1.221l-0.14-1.24l-0.45-1.1l-3.271-4.949
l-0.76-0.881l-0.92-0.891l-1.13-0.799l-2.09-0.721l-6.101-0.18l-1.88-0.471l-1.02-0.959l-0.73-3.961l-0.41-1.189l-1.25-1.92
l-0.34-1.039l0.33-2.211l-0.11-0.49l-0.42-0.75l-0.729-0.74l-3.99-2.619l-8.27-3.051l-6.181-1.529l-1.14-0.51l-1.04-0.621
l-0.84-0.799l-0.62-1.031l-1.03-2.279l-0.68-0.98l-0.89-0.75l-2.381-1.549l-4.069-3.381l-1.04-1.539l-0.5-1.221l0.09-1l0.29-1.17
l1.8-4.779l2.34-4.271l1.48-3.51l0.6-1.039l1.53-1.76l0.77-0.711l0.561-0.779l0.24-0.59l0.18-1.021l0.07-0.93l-0.15-1.24
l-0.33-1.559l-1.03-2.031l-1.649-4.359l-0.86-1.359l-1.52-1.801l-2.11-3.09l-0.51-1.25l-0.46-2.529l-0.561-1.521l-0.239-1.219
l0.329-1.021l0.74-0.76l2.01-1.25l0.891-0.75l0.62-0.949l0.54-2.23l0.359-1.08l0.511-1.049l0.319-1.15l-0.01-1.221l-0.63-2.449
l-0.46-1.16l-0.33-1.18v-1.26l0.34-1.191l1.11-2.109l0.359-1.08l0.051-1.039l-0.631-5.641l-0.489-1.73l-0.801-1.049l-1.05-0.74
l-7.8-4.24l-0.63-0.6l-0.44-0.641l-0.399-1.59l-0.271-0.74l-1.87-3.711l-1.21-1.898l-0.939-1.98l-0.17-0.641l-0.311-0.74l-2.06-3.17
l-0.101-0.209l-0.199-0.67l-0.261-1.34l-0.27-0.691l-1.05-1.949l-0.37-1.18l-6.22-13.971l-2.11-3.17l-0.61-0.74l-7.91-5.061
l-2.42-1.988l-1.819,0.41l-2.48-2.352l-8.109-5.039l-2.58-0.74L297.41,1236.88z"/>
<path id="region_21" region="Androy" fill="#CCCCCC" stroke="#FFFFFF" stroke-width="0.5" d="M213.24,1588.259l1.659-0.52l1.61-0.76l1.68-0.391
l31.24-1.359l7.58-1.67l5.53-5.291l2.46-0.199l2.3-0.949l2.1-1.541l11-10.49l15.36-8.6l13.79-7.24l21.74-9.66l-9.761-17.219
l-22.01-12.15v-18.189l-2.75-12.121l4.12-16.65v-13.6l-12.38-10.58l-5.5-13.58l5.5-18.1l-8.25-7.529l-15.13-4.521l-12.851,0.641
l-4.35-14.98l-20.63,4.51l-6.88,9.031l-5.5,16.57l-2.75,22.629l-5.51,13.59v15.121l2.75,21.189l-4.12,18.189l-15.13,15.17
L170.9,1533.71l-5.399,18.68l4.34,1.311l7.4,3.6l8.119,6.039l1.851,1.711l1.37,3.689l1.43,1.66l3.29,2.439l11.71,4.42l3.35,2.602
l0.931,1.979l1.04,4.67l1.04,1.361L213.24,1588.259z"/>
<path id="region_13" region="Analanjirofo" fill="#CCCCCC" stroke="#FFFFFF" stroke-width="0.5" d="M727.34,581.919l3.109-6.789l3.91-5.301l5.37-11.811
l2.9-8.869l3.97-8.279l0.46-2.771l-4.25,2.461l-1.34,1.07l-0.94,1.49l-0.38,1.77l-0.18,1.801l-0.41,1.658l-7.42,11.682l-2.49,2.84
l-0.91,1.539l-0.35,1.961l-0.11,3.209l-0.24,1.49l-0.479,1.57l-2.63,5.721l-0.57,2.979l0.97,3.131L727.34,581.919z M698.949,338.46
l-0.819-0.08l-1.04,0.299l-0.521,0.25l-0.479,0.32l-0.41,0.371l-1.93,2.789l-0.711,0.631l-0.729,0.309l-0.69-0.029l-0.659-0.1
l-0.61-0.16l-0.48-0.189l-0.34-0.191l-2.52-1.789l-0.5-0.27L686,340.49l-0.54,0.26l-0.4,0.6l-0.271,1.221l-0.01,0.881l0.03,0.779
l0.7,2.49l0.069,1.41l-0.159,1.4l-0.17,0.629l-0.95,2.541l-0.17,0.84v0.719l0.1,0.531l0.31,0.75l0.171,0.539l0.1,0.66l0.07,1.439
l-0.261,2.111l-0.3,0.67l-0.45,0.629l-0.92,0.621l-0.71,0.309l-0.79,0.16l-1.43-0.049l-1.33-0.27l-1.68-0.65l-0.561-0.141
l-0.62,0.041l-0.5,0.299l-0.34,0.57l-0.08,0.98v0.809l0.08,0.682l0.24,0.529l0.64,0.91l0.271,0.52l0.17,0.621l0.08,0.68l-0.03,0.719
l-0.09,0.691l-0.4,1.16l-0.34,0.619l-0.49,0.619l-0.829,0.65l-0.75,0.17l-0.66-0.059l-1.811-0.561l-0.63-0.051l-0.59,0.111
l-0.55,0.229l-0.46,0.391l-1.01,1.09l-0.591,0.32l-1.18,0.439l-3.03,1.971l-0.96,0.26l-0.83,0.061l-1.409-0.16l-0.7,0.029
l-0.65,0.131l-0.58,0.189l-0.54,0.24l-0.979,0.609l-0.511,0.43l-0.489,0.561l-0.63,0.891l-0.5,0.559l-0.49,0.461l-1.061,0.49
l-2.38,0.74l-3.1,1.6l-0.601,0.18l-0.649,0.109h-0.68l-1.24-0.189h-0.67l-0.63,0.1l-1.24,0.33l-2.83,0.361l-1.26,0.309l-0.511,0.5
l-0.43,0.74l-0.29,1.551v0.939l0.21,0.74l0.54,1.02l0.19,0.59l0.13,1.441l0.12,0.648l0.17,0.631l0.53,1.02l0.35,0.439l0.439,0.342
l0.511,0.279l0.58,0.209l0.649,0.141l0.71,0.02l0.67-0.08l1.12-0.309l0.59,0.039l0.5,0.23l0.46,0.35l0.48,0.301l0.51,0.199
l0.58-0.029l1.04-0.33h0.42l0.26,0.359l0.07,0.541l-0.24,0.818l-0.51,0.941l-1.18,1.459l-1.79,1.631L643.86,403l-0.3,0.791
l-0.17,1.459l0.12,0.861l0.22,0.719l0.22,0.541l0.19,0.559l0.08,0.621v0.699l-1.86,13.98L641,428.21l-0.2,1.359v0.73l0.069,0.68
l0.17,0.609l0.271,0.521l1.36,1.779l0.609,0.99l0.94,2.189l0.72,2.41l1.311,6.529l0.119,1.381l-0.08,0.789l-0.279,1l-1.431,2.84
l-1.55,2.102l-2.71,2.92l-0.64,0.879l-0.79,1.631l-1.09,3.34l-0.04,0.27l-0.98,4l-1.54,3.609l-0.13,0.98l0.18,0.701l0.4,0.389
l0.44,0.34l10.26,4.811l3.399,0.57l4.351,0.209l1.26,0.301l1.16,0.449l0.46,0.33l0.36,0.441l0.239,0.529l0.12,0.67l0.03,0.68
l-0.1,1.32l0.05,0.6l0.68,1.602l0.17,0.639l0.101,0.65l-0.24,1.051l-0.51,1.309l-6.521,12.01l-0.51,1.301l-0.13,1.279l-0.141,0.602
l-0.319,0.76l-1.681,2.549l-2.21,1.73l-4.33,2.199l-0.619,0.182l-0.631,0.119l-0.68,0.041l-0.66,0.299l-0.56,0.621l-0.45,1.398
l-0.1,0.971l0.08,1.541l-0.28,1.068l-0.55,1.291l-1.4,2.369l-1.14,2.76l-0.46,0.791l-0.9,0.959l-1.05,0.871l-0.65,0.68l-0.54,0.74
l-0.37,1.1l-0.02,0.779l0.12,0.701l0.58,1l1.04,1.33l0.239,0.48l-0.029,0.6l-0.41,0.529l-0.98,0.52l-0.779,0.291l-5.4,0.969
l-2.7,12.531v10.061l-6.88,17.25l2.75,18.719l-5.5,12.961l7.17,8.35l-5.79,14.709l-9.63,7.221l2.75,5.77l11,5.771l2.76,10.109
l15.13-2.891l16.5-1.439l13.761-4.33v-8.66l4.13-8.66l15.84-1.549l-2.06-11.111l-3.33-5.4l-0.5-1.738l1.09-8.201l5.609-13.359
l5.11-14.471l7.33-14.879l1.4-1.781l1.77-1.25l2.19-0.469l5.529-0.512l2.73-1.5l6.43-0.969l3.49-1.34l3.32-1.871l-2.931,0.291
l-2.609-0.43l-2.36-1.24l-2.31-2.15l-1.67-2.5l-0.79-2.41l-0.19-5.27l4.89-3.971l3.181-3.709l5.79-10.16l0.51-1.461v-3.949
l0.1-0.881l0.471-1.65l0.43-4.408l-0.28-1.74l-1.13-0.73l-1.97-1.721l-0.601-3.969l0.19-4.451l2.33-10.699l-0.46-3.291l-2.521-3.68
l-3.16-2.039l-7.159-2.59l-2.87-2.791l-1.41-3.221l-0.73-3.789l0.051-3.811l1-3.289l3.35-5.951l0.8-1.93l0.36-1.92l-0.29-1.311
l-1.62-3.059l-1.1-3.561l-0.75-5.76l-1.561-3.75l-0.88-3.83l-1.22-1.49l-1.28-1.23l-0.72-1.42h0.29l1.14-3.119l0.12-1.58
l-0.12-1.609l-2.37-6.521l-0.109-2.949l6.27-8.9l2.45-2.25l3.57-1.23h7.1l4-0.439l2.88-1.51l2.04,0.209l0.54,0.182l0.69,0.99
l-0.15,0.779l-0.39,0.66l-0.15,0.689l0.87,5.77l-0.061,2l-0.6,3.521l0.28,1.469l3.13,4.141l0.51,0.35l0.96,0.041l0.71,0.139
l0.63,0.35l0.7,0.66l1.07,1.73l-0.13,1.5l-0.721,1.51l-0.6,1.861l-0.05,1.84l0.31,1.91l0.58,1.799l0.73,1.531l0.949,1.26l1.431,1.5
l1.55,1.25l1.31,0.529l0.23,0.83l0.52,5.85l0.82,3.391l2.04,2.469l5.4,4.73l2.409-0.32l-0.01-0.01l-0.71-0.59l-4.28-13.311
l-0.25-2.1l-0.21-0.879l-0.409-0.93l-1-1.471l-0.601-1.109l-0.59-1.621l-0.39-1.811l-0.4-3.539l-1.45-4.58l-1.779-4.33l-0.141-0.859
l0.021-0.74l1.1-4.4l0.05-0.689l-0.1-2.891l0.09-0.68l0.15-0.641l2.01-5.08l0.16-0.619l0.12-0.65l-0.021-0.699l-0.52-1.131
l-3.931-6.051l-0.54-1.148l-0.109-0.66l-0.05-0.68l0.109-1.4l0.521-2.66l0.239-0.551l1.181-1.949l0.2-0.57l0.09-0.65l-0.5-1.09
l-0.9-1.391l-2.29-2.67l-0.68-1.318l-0.19-0.92l0.7-0.852l0.4-0.369l0.37-0.311l0.689-0.41l2.82-1.219l0.479-0.301l0.44-0.34
l0.359-0.42l0.211-0.52l-0.08-0.631l-0.301-0.68l-7.29-9.541l-2.079-4.199l-0.771-0.811l-0.42-0.35l-0.56-0.26l-0.631-0.17
l-1.029,0.17l-0.67,0.25l-1.631,0.92l-0.579,0.211L731.74,351l-5.39-1.039l-1.65-0.16l-1.149,0.07l-0.521,0.26l-8.96,3.639
l-0.6,0.172l-1.04-0.602l-1.3-1.299l-2.45-3.461l-0.95-1.68l-2.19-2.609L698.949,338.46z"/>
<path id="region_4" region="Analamanga" fill="#CCCCCC" stroke="#FFFFFF" stroke-width="0.5" d="M419.99,671.679l-1.359-1.639l-1.07-0.91l-2.32-0.75
l-3.1-0.41l-5.76-0.051l-1.24-0.539l-0.46-0.98l0.42-2.41l0.04-1.299l-0.26-1.24l-1.15-3.66l-0.689-1.041l-0.891-0.049l-1.09,0.16
L399.7,656.8l-1.74,0.891l-1.471,0.318l-4.52-0.25l-4.06-0.77l-2.301-0.129l-1.71,0.199l-6.56,1.699l-7.271,0.551l3.551,19.551
l9.56,25.398l14.59,20.141l11.08,10.791l3.41,16.119l1.89,3.5l3.74,3.289l1.42,5.42l3.47,5.121l4.5,2.42L429.34,774l5.08,1.281
l7.68,1.66l3.41,2.279l3.12,1.209l1.439,3.361l11.771,19.93l5.5,18.92h12.38l-2.75,16.029v14.58l19.26,8.75l14.89,11.701l-0.31-2.25
l0.02-2.771l0.181-0.979l0.24-0.75l1.52-2.602l0.76-1.658l0.29-1.25l0.141-1.451l0.189-0.779l0.32-0.57l1.49-1.75l1.869-2.939
l0.431-0.941l0.27-0.85l0.34-1.75l0.761-7.609l0.04-1.471l-0.29-2.289l-0.04-4.09l-0.63-1.76l-0.15-0.881l-0.07-1.15l0.19-3.41
l-0.07-0.949l-0.18-0.59l-3.57-7.041l-0.24-0.91l-0.18-1.568l0.05-0.941l0.15-0.799l1.84-3.721l0.521-1.5l0.149-1.16l0.021-1.459
l0.13-0.811l0.26-0.66l0.56-0.83l0.44-0.84l0.46-1.121l0.17-1.158l0.34-5.592l-0.08-2.629l0.301-3.91l-0.07-0.699l-0.811-3.191
l-0.38-2.799l-0.25-8.941l1.391-7.729l3.67-10.551l0.439-2.02l0.09-1.49l-0.1-1.471l0.9-9.689l-0.101-4.16l0.15-1.02l0.13-0.65
l0.19-0.359l0.609-0.861l1.79-1.559l0.44-0.602l0.54-1l0.12-0.809l-0.021-0.77l-0.15-0.611l-0.26-0.539l-0.89-1.5l-0.2-0.83
l-0.11-1.121V721.4l-0.17-0.859l-1.68-2.971l-0.32-0.75l-0.12-1.02l0.23-7.141l-0.03-0.24l-0.12-0.359l-0.34-2l-0.08-2.279
l0.181-1.281l0.26-1.09l0.41-1.039l0.01-0.73l-0.12-0.541l-0.64-1.129l-0.44-1.121l-0.53-2.619l-0.38-1.221l-0.81-1.559l-0.19-0.631
l-0.399-5.1l-0.181-0.609l-0.3-0.5l-0.39-0.381l-0.51-0.301l-1.681-0.729l-0.97-0.631l-0.45-0.35l-1.51-0.91l-0.44-0.359l-0.35-0.66
l-0.22-0.57l-0.46-2.471l-6.17,1.4l-3.2,1.17l-15.75,2.939l-4.29,0.221l-2.67-0.301l-1.04-0.939l-1.28-2.24l-0.76-0.959l-1.53-0.531
l-3.689,0.551l-4.671-0.68L465.99,677l-1.72-0.789l-0.95-1.07l-0.54-1.07l-0.72-0.891l-0.93-0.709l-3.21-1.609l-0.851-0.74
l-0.67-0.91l-0.81-2.281l-0.19-1.189l-0.05-0.949l0.03-0.951l-1.07-0.879l-2.12-1.031l-4.689-1.6l-2.891-0.49l-2.52-0.029
l-2.811,0.27l-1.649,0.48l-1.24,0.641l-3.67,2.75l-1.141,0.43l-4.18,0.58l-1.17,0.41l-1.02,0.6l-1.721,1.471l-0.67,0.908l-1.16,2.15
l-0.659,0.84L419.99,671.679z"/>
<path id="region_14" region="Amoron'i Mania" fill="#CCCCCC" stroke="#FFFFFF" stroke-width="0.5" d="M287.48,911.57l-0.779-0.109l-2.811-1.57l-2.43-2.551
l-0.21,1.031l-0.261,2.91l-0.17,0.648l-0.22,0.602l-0.87,1.568l-0.09,0.711l0.17,0.881l0.7,1.18l0.53,0.68l0.55,0.51l0.92,0.68
l1.58,0.859l0.46,0.361l0.32,0.49l0.119,0.639l-0.17,0.871l-0.46,1.309l-0.08,0.721l0.2,1.641l-0.1,0.68l-0.29,0.539l-0.44,0.371
l-0.92,0.67l-0.41,0.41l-0.31,0.51l-0.18,0.631l-0.07,0.738l0.07,2.191l-0.07,0.68l-0.16,0.66l-0.03,0.719l0.17,0.83l0.681,1.25
l0.33,0.941l0.06,1.17l-0.01,1.729l0.2,0.941l0.43,1.289l0.95,2.131l1.43,6.119l0.03,2.211l0.14,0.939l1.91,8.051l0.16,1.129v0.93
l-0.17,0.65l-0.47,1.17l-0.341,1.281L287,967.9l0.04,0.689l0.92,4.621l0.05,0.74l-0.05,1.52l-0.141,0.67l-0.22,0.609l-1.07,1.801
l-0.159,0.369l-0.15,0.531l-0.15,2.16l-0.26,1.42l-0.189,0.629l-0.24,0.561l-0.2,0.6l0.05,1.041l2.83,12.469l0.45,5.57l-0.06,0.73
l-0.11,0.68l-0.33,0.5l-0.44,0.369l-0.619,0.201l-2.141,0.25l-0.55,0.25l-0.39,0.439l-0.24,0.6l-0.141,0.711l-0.199,2.27l-0.19,0.65
l-0.25,0.57l-0.6,1.049l-0.2,0.6l-0.7,3.4l-0.07,0.68l0.04,1.41l-0.13,1.42l0.061,1.111l0.27,1.469l0.771,2.781l0.199,1.479
l0.021,1.07l-0.33,1.35l-0.82,10.66l-0.13,0.602l-0.189,0.609l-0.261,0.59l14.61-0.029l13.76-7.371l15.13-4.41l8.25-8.84l9.631-8.83
l9.63-4.41l8.25,2.941l9.63-2.941l2.75,8.82l11.01,16.201l15.13,10.318h13.75l8.26-11.789l17.88-7.371l8.25,2.951l4.13,7.359
l13.761,1.48l1.37-19.15l5.51-5.879l8.25-1.471l1.37-7.359l1.38-16.16l8.25-2.941l10.05-9.709l-0.71-0.439l-0.5-0.471l-0.37-0.52
l-0.31-0.51l-0.32-0.461l-0.41-0.4l-1-0.619l-0.43-0.371l-1.16-1.26l-0.48-0.35l-0.529-0.289l-1.771-0.67l-0.42-0.361l-0.38-0.449
l-0.68-1.73l-0.3-0.51l-0.4-0.41l-0.33-0.48l-0.25-1.02l-0.46-9.65l0.41-3.01l1.81-7.51l1.141-3.33l0.51-1.129l0.31-2.15l0.08-5.881
l-0.31-0.719l-0.28-0.361l-0.41-0.4l-0.51-0.309l-0.57-0.23l-2.55-0.51l-0.74-0.221l-0.58-0.32l-0.34-0.42l-0.149-0.539l0.1-0.551
l0.26-0.5l0.761-0.859l0.31-0.439l0.12-0.561l-0.141-0.529l-0.439-0.4l-0.65-0.17l-1.1,0.26l-0.68,0.32l-0.53,0.439l-1.521,1.721
l-0.46,0.33l-0.609,0.209l-3.391,0.57l-1.149,0.471l-5.55,3.27l-0.561,0.109l-0.58-0.141l-0.479-0.639l-0.561-1.23l-0.359-0.449
l-0.46-0.352l-0.65-0.209l-0.73-0.029l-1.05,0.389l-0.51,0.52l-0.34,0.621l-0.24,0.58l-0.33,0.48l-0.43,0.389l-0.8,0.16l-1.141-0.1
l-6.8-1.82l-0.54-0.26l-1.35-1.08l-0.511-0.311l-0.68-0.189l-0.85-0.02l-1.25,0.25l-2.09,0.66l-0.44,0.25l-0.28,0.23l-1.62,2.09
l-0.409,0.398l-0.561,0.17l-0.729-0.17l-0.841-0.68l-0.449-0.619l-0.33-0.631l-0.32-0.49l-0.479-0.318l-0.631-0.092l-0.779,0.262
l-0.53,0.369l-0.48,0.42l-1.449,0.961l-0.42,0.379l-0.771,0.85l-0.34,0.49l-0.271,0.531l-0.17,0.639l-0.069,2.121l-0.561,3.5
l-0.16,0.639l-0.59,0.42l-1.01,0.16l-1.93,0.021l-1.87,0.379l-2.16,1.029l-0.87,0.182l-5.07,0.26l-3.31,1.48l-0.74,0.09l-0.88-0.131
l-2.08-0.971l-1.229-0.799l-0.54-0.24l-0.69-0.141l-1.05,0.16l-0.67,0.311l-1.45,1.061l-0.37,0.439l-0.97,1.471l-3.41,3.869
l-2.51,2.33l-0.71,0.91l-0.41,0.4l-0.439,0.359l-0.61,0.279l-2.771,0.18l-1.039,0.23l-1.801,1.24l-2.18,0.791l-2.13-1.102
l-1.87-1.42l-1.55,0.531l-1.811,1.07l-2.68,0.25l-2.41-0.721l-7.34-3.75l-1.77,0.4l-1.83,1.969l-2.091,1.781l-2.55-0.111
l-0.859-0.799l-0.58-0.9l-0.62-0.75l-0.97-0.311l-1.341-0.07l-2.09-0.449l-2.21-0.84L355.33,948l-1.03-0.42l-1.36-0.061l-1.27,0.451
l-2.62,1.6l-1.42,0.35l-2.13-0.52l-2.511-1.23l-4.43-3.049l-1.95-1.9l-1.1-1.951l0.44-1.85l2.609-1.559l-1.02-1.311l-1.101-2.811
l-0.88-1.471l1.68-0.568l0.66-1.541l-0.149-1.891l-0.761-1.658l-1.22-1.041l-3.3-1.709l-1.4-1.24l-0.85,1.91l-1.02,1.049l-2.7,1.9
l-2.63,3.23l-0.811,0.109l-0.31-2.539l-0.561-2.391l-1.41-0.641l-1.829-0.23l-1.86-1.129l-0.87-1.871l-0.58-4.1l-1.2-1.68
l-0.979-0.35l-2,0.359l-0.771-0.01l-0.84-0.529l-1.43-1.4l-0.73-0.461l-7.09-0.398L295.2,911l-2.511-0.52l-0.8-0.27l-0.78,0.059
l-1.069,0.791l-0.681,0.35l-0.92,0.16H287.48z"/>
<path id="region_11" region="Alaotra-Mangoro" fill="#CCCCCC" stroke="#FFFFFF" stroke-width="0.5" d="M554.19,486.861l-0.66-0.041l-0.63-0.16l-1.35-0.141
l-5.29,0.922l-0.58,0.219l-1.51,0.83l-0.58,0.221l-1.96,0.4l-0.561,0.209l-0.53,0.26l-0.56,0.23l-0.6,0.16L538.67,490l-2.74-0.16
l-0.62-0.129l-0.54-0.221l-1.02-0.609l-0.551-0.221l-0.67-0.049l-0.63,0.068l-1.34-0.01l-1.23-0.32l-1.109-0.469l-0.61-0.141h-0.58
l-0.58,0.15l-0.949,0.551l-0.48,0.189l-0.34,0.039l-0.51-0.07l-0.94-0.539l-0.53-0.189l-0.439,0.229l-0.271,0.611l0.03,1.4
l-0.08,0.77l-0.36,0.82l-0.859,0.889l-1.38,0.98l-0.801,0.779l-0.64,0.941l-0.729,1.639l-0.12,0.811v0.99l0.81,3.971l0.17,1.42
l-0.01,1.039l-0.89,6.84l-0.221,0.781l-0.75,1.779l-0.17,0.699L515.67,518l0.01,2.191l0.92,5.25l0.17,0.6l1.66,3.08l0.45,1.129
l0.35,1.221l0.42,2.84l0.15,4.18l-0.12,0.811l-0.51,0.98l-0.271,0.809l-0.1,0.861l0.29,1.129l0.529,1.41l0.631,0.961l1.64,1.539
l0.68,0.9l0.37,0.41l0.34,0.449l0.29,0.51l0.38,1.191l0.25,0.5l0.33,0.379l0.54,0.541l0.8,0.619l0.37,0.41l0.29,0.49l0.23,0.699
l0.319,2.041l0.381,0.619l0.449,0.461l0.5,0.299l0.44,0.34l0.4,0.41l0.319,0.48l0.49,1.1l0.31,0.471l0.431,0.369l0.489,0.291
l0.561,0.23l1.04,0.549l0.46,0.34l0.229,0.711l-0.04,1l-1.229,3.709l0.07,0.561l0.489,0.561l0.46,0.75l0.29,1.049l0.07,2.871
l0.07,0.539l2.49,3.58l1.56,1.611l1.89,1.289l0.57,0.23l0.65,0.141l0.71,0.059l1.449-0.059l1.36,0.199l0.561,0.25l0.359,0.629
l0.17,0.99l-0.12,1.92l0.091,1.08l0.199,0.781l0.29,0.68l0.23,0.891l0.109,1.529l0.21,0.92l0.24,0.721l0.24,0.539l0.2,0.6
l-0.17,1.131l-0.511,1.57l-2.35,4.369l-0.68,0.881l-0.86,0.719l-0.35,0.541l-0.19,0.689l0.07,1.189l0.54,2.031l-0.29,0.92
l-0.561,1.16l-1.359,2.1l-0.78,0.971l-1.06,1.068l-0.341,0.67l-0.31,0.9l-1.07,4.84l-0.38,0.951l-0.609,0.75l-1.45,1.16l-0.29,0.568
l-0.12,0.73l0.189,1.111l0.341,0.639l0.51,0.41l2.06,0.23l0.48,0.27l0.13,0.631l-0.06,0.75l-0.28,1.139l0.09,1.461l-0.14,0.629
l-0.71,0.711l-1.16,0.85l-0.48,0.531l-0.39,0.76l-0.29,1.529v2.641l-0.18,0.66l-0.33,0.488l-1.21,0.4l-0.48,0.58l-0.37,1.73
l-0.24,4.211l-0.51,3.529l-0.33,0.84l-0.54,0.84l-1.279,1.17l-0.801,0.23l-0.75,0.039l-0.649-0.09l-0.66,0.061l-0.55,0.15
l-0.471,0.18l-0.289,0.17l-0.36,0.27l-0.36,0.561l-0.29,0.82l-0.189,1.52l0.06,1.84l-0.09,0.74l-0.29,0.84l-0.78,1l-1.229,1.18
l-0.33,0.561l-0.25,0.76l-0.05,1.34l0.08,0.881l0.31,1.369l-0.32,1.27l-2.92,5.471l-3.609,5.02l0.46,2.471l0.22,0.57l0.35,0.66
l0.44,0.359l1.51,0.91l0.45,0.35l0.97,0.631l1.681,0.729l0.51,0.301l0.39,0.381l0.3,0.5l0.181,0.609l0.399,5.1l0.19,0.631
l0.81,1.559l0.38,1.221l0.53,2.619l0.44,1.121l0.64,1.129l0.12,0.541l-0.01,0.73l-0.41,1.039l-0.26,1.09l-0.181,1.281l0.08,2.279
l0.34,2l0.12,0.359l0.03,0.24l-0.23,7.141l0.12,1.02l0.32,0.75l1.68,2.971l0.17,0.859v3.189l0.11,1.121l0.2,0.83l0.89,1.5
l0.26,0.539l0.15,0.611l0.021,0.77l-0.12,0.809l-0.54,1l-0.44,0.602l-1.79,1.559L525,734.791l-0.19,0.359l-0.13,0.65l-0.15,1.02
l0.101,4.16l-0.9,9.689l0.1,1.471l-0.09,1.49l-0.439,2.02l-3.67,10.551l-1.391,7.729l0.25,8.941l0.38,2.799l0.811,3.191l0.07,0.699
l-0.301,3.91l0.08,2.629l-0.34,5.592l-0.17,1.158l-0.46,1.121l-0.44,0.84l-0.56,0.83l-0.26,0.66l-0.13,0.811l-0.021,1.459
L517,809.73l-0.521,1.5l-1.84,3.721l-0.15,0.799l-0.05,0.941l0.18,1.568l0.24,0.91l3.57,7.041l0.18,0.59l0.07,0.949l-0.19,3.41
l0.07,1.15l0.15,0.881l0.63,1.76l0.04,4.09l0.29,2.289l-0.04,1.471l-0.761,7.609l-0.34,1.75l-0.27,0.85l-0.431,0.941l-1.869,2.939
l-1.49,1.75l-0.32,0.57l-0.189,0.779l-0.141,1.451l-0.29,1.25l-0.76,1.658l-1.52,2.602l-0.24,0.75l-0.181,0.979l-0.02,2.771
l0.31,2.25v0.77l-0.17,0.859l-0.43,1.051l-1.26,1.74l-0.38,0.799l-0.12,1.35l0.16,7.141l0.229,1.35l0.311,1.121l0.18,0.939v0.68
l-0.29,2.941l-1.03,2.729l15.42-3.039l8.25-5.84l8.261,7.309l17.88,1.461l4.12-26.301h9.63l-4.12-21.889l19.26-5.83l1.37-17.48
l9.63-2.92v-21.83l-9.63-26.16l-5.5-17.42v-23.211l4.13-15.939l13.75-2.9l13.76-8.689l-1.38-11.57l-9.63-11.58l-6.88-8.67
l6.88-2.889h13.76l4.13-11.561l-2.76-10.109l-11-5.771l-2.75-5.77l9.63-7.221l5.79-14.709l-7.17-8.35l5.5-12.961l-2.75-18.719
l6.88-17.25V549.3l2.7-12.531l-0.68-0.068l-0.63-0.16l-2.28-0.871l-0.65-0.049l-1.88,0.32l-1.33-0.061l-0.64,0.061l-0.601,0.189
l-0.539,0.23l-9.341,6.529l-2.05,1.93l-0.88,0.711l-0.97,0.619l-0.51,0.25l-0.62,0.15l-0.641,0.02l-0.6-0.16l-0.5-0.32l-0.41-0.389
l-3.5-5.281l-1.01-2.129l-0.4-1.201l-0.25-1.32v-1.488l0.08-0.721l0.351-1.27l0.47-1.09l1.74-3.021l0.46-1.139l0.159-0.631
l0.03-0.65l-0.14-0.609l-0.23-0.51l-1.229-1.16l-0.36-0.42l-0.3-0.49l-0.2-0.561l-0.06-0.648l0.12-1.262l-0.23-2.779l-0.14-0.65
l-0.271-0.529l-0.609-0.971l-0.24-0.549l-0.23-1.691l-0.239-0.469l-0.391-0.35l-0.97-0.602l-0.45-0.359l-0.3-0.49l-0.34-1.23
l-0.28-0.51l-0.76-0.82l-1.86-1.289L586,505.75l-2.381-0.789l-1.1-0.5l-1.94-1.23l-3.029-4.061l-1.23-1.129l-0.85-0.621l-0.55-0.209
l-0.61-0.051l-2.53,0.471l-1.39-0.031l-0.7,0.031l-1.07,0.34l-0.489-0.051l-0.33-0.359l-0.221-0.551l-0.13-2.199l-0.21-0.6
l-0.37-0.41l-0.529-0.27l-2-0.391l-0.561-0.23l-0.529-0.279l-0.811-0.781l-1.45-0.92l-0.41-0.379l-1.699-2.23l-1.25-1.129
l-0.48-0.301l-0.52-0.23l-0.58-0.09l-1.2,0.23L554.19,486.861z"/>
</svg>
